<svg width="576" height="107" viewBox="0 0 576 107" fill="none" xmlns="http://www.w3.org/2000/svg">
<mask id="path-1-outside-1_556_14" maskUnits="userSpaceOnUse" x="6" y="-0.00854492" width="566" height="104" fill="black">
<rect fill="white" x="6" y="-0.00854492" width="566" height="104"/>
<path d="M73.2453 46.6839C73.2453 50.94 72.2607 54.8149 70.2914 58.3087C68.3222 61.7389 65.4001 64.4704 61.5252 66.5032C57.7138 68.5359 53.0766 69.5523 47.6136 69.5523H39.2285V90.9915H18.0752V23.5296H47.6136C55.8716 23.5296 62.1922 25.6259 66.5753 29.8184C71.0219 34.011 73.2453 39.6328 73.2453 46.6839ZM45.2314 52.8774C49.6146 52.8774 51.8061 50.8129 51.8061 46.6839C51.8061 42.5549 49.6146 40.4904 45.2314 40.4904H39.2285V52.8774H45.2314ZM90.6266 32.9628C86.9422 32.9628 83.9884 31.9782 81.7651 30.009C79.5418 28.0398 78.4301 25.5624 78.4301 22.5768C78.4301 19.5276 79.5418 17.0185 81.7651 15.0492C83.9884 13.0165 86.9422 12.0001 90.6266 12.0001C94.2474 12.0001 97.1695 13.0165 99.3928 15.0492C101.616 17.0185 102.728 19.5276 102.728 22.5768C102.728 25.5624 101.616 28.0398 99.3928 30.009C97.1695 31.9782 94.2474 32.9628 90.6266 32.9628ZM101.108 37.2507V90.9915H79.9547V37.2507H101.108ZM148.299 36.8695C154.461 36.8695 159.257 38.934 162.687 43.0631C166.181 47.1921 167.928 52.7821 167.928 59.8332V90.9915H146.87V62.5012C146.87 59.9603 146.171 57.9593 144.774 56.4983C143.44 54.9737 141.629 54.2114 139.343 54.2114C136.992 54.2114 135.15 54.9737 133.816 56.4983C132.482 57.9593 131.815 59.9603 131.815 62.5012V90.9915H110.662V37.2507H131.815V45.4452C133.467 42.9042 135.658 40.8397 138.39 39.2516C141.185 37.6636 144.488 36.8695 148.299 36.8695ZM210.546 72.9826V90.9915H202.542C187.804 90.9915 180.436 83.6545 180.436 68.9806V54.8784H173.766V37.2507H180.436V24.2919H201.589V37.2507H210.355V54.8784H201.589V69.3617C201.589 70.6322 201.875 71.5533 202.447 72.125C203.082 72.6967 204.098 72.9826 205.496 72.9826H210.546ZM215.743 64.1211C215.743 58.4675 216.696 53.5762 218.602 49.4472C220.571 45.2546 223.239 42.0784 226.606 39.9186C229.973 37.6953 233.752 36.5837 237.945 36.5837C241.439 36.5837 244.456 37.3142 246.997 38.7752C249.538 40.1727 251.475 42.1102 252.809 44.5876V37.2507H273.867V90.9915H252.809V83.6545C251.475 86.1319 249.538 88.1011 246.997 89.5622C244.456 90.9597 241.439 91.6585 237.945 91.6585C233.752 91.6585 229.973 90.5786 226.606 88.4188C223.239 86.1954 220.571 83.0193 218.602 78.8902C216.696 74.6977 215.743 69.7746 215.743 64.1211ZM252.809 64.1211C252.809 61.2625 252.079 59.0392 250.618 57.4511C249.157 55.863 247.283 55.069 244.996 55.069C242.709 55.069 240.835 55.863 239.374 57.4511C237.913 59.0392 237.183 61.2625 237.183 64.1211C237.183 66.9796 237.913 69.2029 239.374 70.791C240.835 72.3791 242.709 73.1731 244.996 73.1731C247.283 73.1731 249.157 72.3791 250.618 70.791C252.079 69.2029 252.809 66.9796 252.809 64.1211ZM304.519 47.1603C306.679 44.0477 309.315 41.5703 312.428 39.7281C315.541 37.8224 318.78 36.8695 322.147 36.8695V59.4521H316.144C312.142 59.4521 309.188 60.1508 307.283 61.5484C305.44 62.9459 304.519 65.4233 304.519 68.9806V90.9915H283.366V37.2507H304.519V47.1603ZM368.627 90.9915L348.998 61.7389V90.9915H327.845V23.5296H348.998V51.9246L368.341 23.5296H392.258L369.008 55.8313L393.782 90.9915H368.627ZM410.446 32.9628C406.761 32.9628 403.808 31.9782 401.584 30.009C399.361 28.0398 398.249 25.5624 398.249 22.5768C398.249 19.5276 399.361 17.0185 401.584 15.0492C403.808 13.0165 406.761 12.0001 410.446 12.0001C414.067 12.0001 416.989 13.0165 419.212 15.0492C421.435 17.0185 422.547 19.5276 422.547 22.5768C422.547 25.5624 421.435 28.0398 419.212 30.009C416.989 31.9782 414.067 32.9628 410.446 32.9628ZM420.927 37.2507V90.9915H399.774V37.2507H420.927ZM451.634 20.4805V90.9915H430.481V20.4805H451.634ZM458.33 64.1211C458.33 58.4675 459.282 53.5762 461.188 49.4472C463.157 45.2546 465.825 42.0784 469.192 39.9186C472.559 37.6953 476.338 36.5837 480.531 36.5837C484.025 36.5837 487.042 37.3142 489.583 38.7752C492.124 40.1727 494.061 42.1102 495.395 44.5876V37.2507H516.453V90.9915H495.395V83.6545C494.061 86.1319 492.124 88.1011 489.583 89.5622C487.042 90.9597 484.025 91.6585 480.531 91.6585C476.338 91.6585 472.559 90.5786 469.192 88.4188C465.825 86.1954 463.157 83.0193 461.188 78.8902C459.282 74.6977 458.33 69.7746 458.33 64.1211ZM495.395 64.1211C495.395 61.2625 494.665 59.0392 493.204 57.4511C491.743 55.863 489.869 55.069 487.582 55.069C485.295 55.069 483.421 55.863 481.96 57.4511C480.499 59.0392 479.769 61.2625 479.769 64.1211C479.769 66.9796 480.499 69.2029 481.96 70.791C483.421 72.3791 485.295 73.1731 487.582 73.1731C489.869 73.1731 491.743 72.3791 493.204 70.791C494.665 69.2029 495.395 66.9796 495.395 64.1211ZM559.397 72.9826V90.9915H551.393C536.656 90.9915 529.287 83.6545 529.287 68.9806V54.8784H522.617V37.2507H529.287V24.2919H550.44V37.2507H559.207V54.8784H550.44V69.3617C550.44 70.6322 550.726 71.5533 551.298 72.125C551.933 72.6967 552.95 72.9826 554.347 72.9826H559.397Z"/>
</mask>
<path d="M73.2453 46.6839C73.2453 50.94 72.2607 54.8149 70.2914 58.3087C68.3222 61.7389 65.4001 64.4704 61.5252 66.5032C57.7138 68.5359 53.0766 69.5523 47.6136 69.5523H39.2285V90.9915H18.0752V23.5296H47.6136C55.8716 23.5296 62.1922 25.6259 66.5753 29.8184C71.0219 34.011 73.2453 39.6328 73.2453 46.6839ZM45.2314 52.8774C49.6146 52.8774 51.8061 50.8129 51.8061 46.6839C51.8061 42.5549 49.6146 40.4904 45.2314 40.4904H39.2285V52.8774H45.2314ZM90.6266 32.9628C86.9422 32.9628 83.9884 31.9782 81.7651 30.009C79.5418 28.0398 78.4301 25.5624 78.4301 22.5768C78.4301 19.5276 79.5418 17.0185 81.7651 15.0492C83.9884 13.0165 86.9422 12.0001 90.6266 12.0001C94.2474 12.0001 97.1695 13.0165 99.3928 15.0492C101.616 17.0185 102.728 19.5276 102.728 22.5768C102.728 25.5624 101.616 28.0398 99.3928 30.009C97.1695 31.9782 94.2474 32.9628 90.6266 32.9628ZM101.108 37.2507V90.9915H79.9547V37.2507H101.108ZM148.299 36.8695C154.461 36.8695 159.257 38.934 162.687 43.0631C166.181 47.1921 167.928 52.7821 167.928 59.8332V90.9915H146.87V62.5012C146.87 59.9603 146.171 57.9593 144.774 56.4983C143.44 54.9737 141.629 54.2114 139.343 54.2114C136.992 54.2114 135.15 54.9737 133.816 56.4983C132.482 57.9593 131.815 59.9603 131.815 62.5012V90.9915H110.662V37.2507H131.815V45.4452C133.467 42.9042 135.658 40.8397 138.39 39.2516C141.185 37.6636 144.488 36.8695 148.299 36.8695ZM210.546 72.9826V90.9915H202.542C187.804 90.9915 180.436 83.6545 180.436 68.9806V54.8784H173.766V37.2507H180.436V24.2919H201.589V37.2507H210.355V54.8784H201.589V69.3617C201.589 70.6322 201.875 71.5533 202.447 72.125C203.082 72.6967 204.098 72.9826 205.496 72.9826H210.546ZM215.743 64.1211C215.743 58.4675 216.696 53.5762 218.602 49.4472C220.571 45.2546 223.239 42.0784 226.606 39.9186C229.973 37.6953 233.752 36.5837 237.945 36.5837C241.439 36.5837 244.456 37.3142 246.997 38.7752C249.538 40.1727 251.475 42.1102 252.809 44.5876V37.2507H273.867V90.9915H252.809V83.6545C251.475 86.1319 249.538 88.1011 246.997 89.5622C244.456 90.9597 241.439 91.6585 237.945 91.6585C233.752 91.6585 229.973 90.5786 226.606 88.4188C223.239 86.1954 220.571 83.0193 218.602 78.8902C216.696 74.6977 215.743 69.7746 215.743 64.1211ZM252.809 64.1211C252.809 61.2625 252.079 59.0392 250.618 57.4511C249.157 55.863 247.283 55.069 244.996 55.069C242.709 55.069 240.835 55.863 239.374 57.4511C237.913 59.0392 237.183 61.2625 237.183 64.1211C237.183 66.9796 237.913 69.2029 239.374 70.791C240.835 72.3791 242.709 73.1731 244.996 73.1731C247.283 73.1731 249.157 72.3791 250.618 70.791C252.079 69.2029 252.809 66.9796 252.809 64.1211ZM304.519 47.1603C306.679 44.0477 309.315 41.5703 312.428 39.7281C315.541 37.8224 318.78 36.8695 322.147 36.8695V59.4521H316.144C312.142 59.4521 309.188 60.1508 307.283 61.5484C305.44 62.9459 304.519 65.4233 304.519 68.9806V90.9915H283.366V37.2507H304.519V47.1603ZM368.627 90.9915L348.998 61.7389V90.9915H327.845V23.5296H348.998V51.9246L368.341 23.5296H392.258L369.008 55.8313L393.782 90.9915H368.627ZM410.446 32.9628C406.761 32.9628 403.808 31.9782 401.584 30.009C399.361 28.0398 398.249 25.5624 398.249 22.5768C398.249 19.5276 399.361 17.0185 401.584 15.0492C403.808 13.0165 406.761 12.0001 410.446 12.0001C414.067 12.0001 416.989 13.0165 419.212 15.0492C421.435 17.0185 422.547 19.5276 422.547 22.5768C422.547 25.5624 421.435 28.0398 419.212 30.009C416.989 31.9782 414.067 32.9628 410.446 32.9628ZM420.927 37.2507V90.9915H399.774V37.2507H420.927ZM451.634 20.4805V90.9915H430.481V20.4805H451.634ZM458.33 64.1211C458.33 58.4675 459.282 53.5762 461.188 49.4472C463.157 45.2546 465.825 42.0784 469.192 39.9186C472.559 37.6953 476.338 36.5837 480.531 36.5837C484.025 36.5837 487.042 37.3142 489.583 38.7752C492.124 40.1727 494.061 42.1102 495.395 44.5876V37.2507H516.453V90.9915H495.395V83.6545C494.061 86.1319 492.124 88.1011 489.583 89.5622C487.042 90.9597 484.025 91.6585 480.531 91.6585C476.338 91.6585 472.559 90.5786 469.192 88.4188C465.825 86.1954 463.157 83.0193 461.188 78.8902C459.282 74.6977 458.33 69.7746 458.33 64.1211ZM495.395 64.1211C495.395 61.2625 494.665 59.0392 493.204 57.4511C491.743 55.863 489.869 55.069 487.582 55.069C485.295 55.069 483.421 55.863 481.96 57.4511C480.499 59.0392 479.769 61.2625 479.769 64.1211C479.769 66.9796 480.499 69.2029 481.96 70.791C483.421 72.3791 485.295 73.1731 487.582 73.1731C489.869 73.1731 491.743 72.3791 493.204 70.791C494.665 69.2029 495.395 66.9796 495.395 64.1211ZM559.397 72.9826V90.9915H551.393C536.656 90.9915 529.287 83.6545 529.287 68.9806V54.8784H522.617V37.2507H529.287V24.2919H550.44V37.2507H559.207V54.8784H550.44V69.3617C550.44 70.6322 550.726 71.5533 551.298 72.125C551.933 72.6967 552.95 72.9826 554.347 72.9826H559.397Z" fill="white"/>
<path d="M70.2914 58.3087L80.6985 64.2831L80.722 64.242L80.7453 64.2008L70.2914 58.3087ZM61.5252 66.5032L55.9506 55.8766L55.9143 55.8957L55.8781 55.915L61.5252 66.5032ZM39.2285 69.5523V57.5523H27.2285V69.5523H39.2285ZM39.2285 90.9915V102.991H51.2285V90.9915H39.2285ZM18.0752 90.9915H6.0752V102.991H18.0752V90.9915ZM18.0752 23.5296V11.5296H6.0752V23.5296H18.0752ZM66.5753 29.8184L58.2806 38.4901L58.3118 38.5199L58.3432 38.5495L66.5753 29.8184ZM39.2285 40.4904V28.4904H27.2285V40.4904H39.2285ZM39.2285 52.8774H27.2285V64.8774H39.2285V52.8774ZM73.2453 46.6839H61.2453C61.2453 49.0064 60.7308 50.8317 59.8376 52.4165L70.2914 58.3087L80.7453 64.2008C83.7905 58.798 85.2453 52.8735 85.2453 46.6839H73.2453ZM70.2914 58.3087L59.8844 52.3343C59.1698 53.579 58.0275 54.7871 55.9506 55.8766L61.5252 66.5032L67.0998 77.1298C72.7728 74.1538 77.4746 69.8988 80.6985 64.2831L70.2914 58.3087ZM61.5252 66.5032L55.8781 55.915C54.2049 56.8073 51.6168 57.5523 47.6136 57.5523V69.5523V81.5523C54.5364 81.5523 61.2227 80.2645 67.1723 77.0914L61.5252 66.5032ZM47.6136 69.5523V57.5523H39.2285V69.5523V81.5523H47.6136V69.5523ZM39.2285 69.5523H27.2285V90.9915H39.2285H51.2285V69.5523H39.2285ZM39.2285 90.9915V78.9915H18.0752V90.9915V102.991H39.2285V90.9915ZM18.0752 90.9915H30.0752V23.5296H18.0752H6.0752V90.9915H18.0752ZM18.0752 23.5296V35.5296H47.6136V23.5296V11.5296H18.0752V23.5296ZM47.6136 23.5296V35.5296C53.9191 35.5296 56.8361 37.1084 58.2806 38.4901L66.5753 29.8184L74.87 21.1467C67.5483 14.1434 57.8241 11.5296 47.6136 11.5296V23.5296ZM66.5753 29.8184L58.3432 38.5495C60.0086 40.1198 61.2453 42.3821 61.2453 46.6839H73.2453H85.2453C85.2453 36.8835 82.0353 27.9022 74.8075 21.0874L66.5753 29.8184ZM45.2314 52.8774V64.8774C49.1001 64.8774 54.2336 63.9799 58.3908 60.0637C62.6826 56.0207 63.8061 50.7874 63.8061 46.6839H51.8061H39.8061C39.8061 46.6738 39.8065 46.5509 39.839 46.3363C39.8718 46.1201 39.9399 45.7936 40.0825 45.3906C40.3864 44.5318 40.9685 43.504 41.9341 42.5944C43.8998 40.7426 45.7459 40.8774 45.2314 40.8774V52.8774ZM51.8061 46.6839H63.8061C63.8061 42.5804 62.6826 37.347 58.3908 33.3041C54.2336 29.3878 49.1001 28.4904 45.2314 28.4904V40.4904V52.4904C45.7459 52.4904 43.8998 52.6251 41.9341 50.7734C40.9685 49.8638 40.3864 48.836 40.0825 47.9772C39.9399 47.5742 39.8718 47.2477 39.839 47.0315C39.8065 46.8169 39.8061 46.694 39.8061 46.6839H51.8061ZM45.2314 40.4904V28.4904H39.2285V40.4904V52.4904H45.2314V40.4904ZM39.2285 40.4904H27.2285V52.8774H39.2285H51.2285V40.4904H39.2285ZM39.2285 52.8774V64.8774H45.2314V52.8774V40.8774H39.2285V52.8774ZM81.7651 30.009L89.7215 21.0259L89.7215 21.0259L81.7651 30.009ZM81.7651 15.0492L89.7215 24.0323L89.7924 23.9695L89.8623 23.9056L81.7651 15.0492ZM99.3928 15.0492L91.2956 23.9056L91.3655 23.9695L91.4364 24.0323L99.3928 15.0492ZM99.3928 30.009L91.4364 21.0259L91.4364 21.0259L99.3928 30.009ZM101.108 37.2507H113.108V25.2507H101.108V37.2507ZM101.108 90.9915V102.991H113.108V90.9915H101.108ZM79.9547 90.9915H67.9547V102.991H79.9547V90.9915ZM79.9547 37.2507V25.2507H67.9547V37.2507H79.9547ZM90.6266 32.9628V20.9628C89.8441 20.9628 89.4953 20.8577 89.4427 20.8402C89.4181 20.832 89.4496 20.8404 89.5163 20.8785C89.5844 20.9173 89.6567 20.9685 89.7215 21.0259L81.7651 30.009L73.8087 38.9921C78.7196 43.3417 84.7439 44.9628 90.6266 44.9628V32.9628ZM81.7651 30.009L89.7215 21.0259C89.7639 21.0635 90.0076 21.3056 90.2122 21.7613C90.3061 21.9707 90.3647 22.1665 90.3976 22.3279C90.4134 22.4056 90.4217 22.4677 90.4259 22.5113C90.4301 22.5548 90.4301 22.5774 90.4301 22.5768H78.4301H66.4301C66.4301 28.9767 68.9984 34.7316 73.8087 38.9921L81.7651 30.009ZM78.4301 22.5768H90.4301C90.4301 22.5397 90.4295 22.8306 90.2353 23.2688C90.0377 23.7149 89.7915 23.9703 89.7215 24.0323L81.7651 15.0492L73.8087 6.06618C68.9367 10.3814 66.4301 16.197 66.4301 22.5768H78.4301ZM81.7651 15.0492L89.8623 23.9056C89.8041 23.9588 89.7331 24.0117 89.6593 24.0552C89.5866 24.098 89.544 24.1123 89.5523 24.1095C89.5704 24.1032 89.8805 24.0001 90.6266 24.0001V12.0001V0.000112154C84.6468 0.000112154 78.5713 1.70976 73.6679 6.19289L81.7651 15.0492ZM90.6266 12.0001V24.0001C90.9717 24.0001 91.2143 24.0244 91.3692 24.0485C91.5222 24.0722 91.5896 24.0957 91.5915 24.0964C91.5931 24.0969 91.5818 24.093 91.5601 24.083C91.5383 24.0729 91.5098 24.0583 91.4767 24.0387C91.4062 23.997 91.343 23.949 91.2956 23.9056L99.3928 15.0492L107.49 6.19289C102.625 1.7447 96.6057 0.000112154 90.6266 0.000112154V12.0001ZM99.3928 15.0492L91.4364 24.0323C91.3664 23.9703 91.1203 23.7149 90.9226 23.2688C90.7285 22.8306 90.7278 22.5397 90.7278 22.5768H102.728H114.728C114.728 16.197 112.221 10.3814 107.349 6.06618L99.3928 15.0492ZM102.728 22.5768H90.7278C90.7278 22.5774 90.7278 22.5548 90.732 22.5113C90.7363 22.4677 90.7445 22.4056 90.7604 22.3279C90.7932 22.1665 90.8518 21.9707 90.9458 21.7613C91.1503 21.3056 91.394 21.0635 91.4364 21.0259L99.3928 30.009L107.349 38.9921C112.159 34.7316 114.728 28.9767 114.728 22.5768H102.728ZM99.3928 30.009L91.4364 21.0259C91.4904 20.9781 91.5549 20.9316 91.6199 20.8943C91.6839 20.8575 91.7177 20.8473 91.702 20.8526C91.6694 20.8636 91.3557 20.9628 90.6266 20.9628V32.9628V44.9628C96.5072 44.9628 102.476 43.3086 107.349 38.9921L99.3928 30.009ZM101.108 37.2507H89.108V90.9915H101.108H113.108V37.2507H101.108ZM101.108 90.9915V78.9915H79.9547V90.9915V102.991H101.108V90.9915ZM79.9547 90.9915H91.9547V37.2507H79.9547H67.9547V90.9915H79.9547ZM79.9547 37.2507V49.2507H101.108V37.2507V25.2507H79.9547V37.2507ZM162.687 43.0631L153.457 50.7313L153.492 50.773L153.527 50.8144L162.687 43.0631ZM167.928 90.9915V102.991H179.928V90.9915H167.928ZM146.87 90.9915H134.87V102.991H146.87V90.9915ZM144.774 56.4983L135.743 64.4003L135.918 64.6006L136.102 64.7929L144.774 56.4983ZM133.816 56.4983L142.678 64.5895L142.763 64.4958L142.847 64.4003L133.816 56.4983ZM131.815 90.9915V102.991H143.815V90.9915H131.815ZM110.662 90.9915H98.6618V102.991H110.662V90.9915ZM110.662 37.2507V25.2507H98.6618V37.2507H110.662ZM131.815 37.2507H143.815V25.2507H131.815V37.2507ZM131.815 45.4452H119.815V85.9255L141.876 51.985L131.815 45.4452ZM138.39 39.2516L132.462 28.8182L132.41 28.8476L132.358 28.8776L138.39 39.2516ZM148.299 36.8695V48.8695C151.484 48.8695 152.659 49.7704 153.457 50.7313L162.687 43.0631L171.918 35.3948C165.855 28.0976 157.439 24.8695 148.299 24.8695V36.8695ZM162.687 43.0631L153.527 50.8144C154.691 52.1907 155.928 54.7445 155.928 59.8332H167.928H179.928C179.928 50.8197 177.671 42.1934 171.848 35.3117L162.687 43.0631ZM167.928 59.8332H155.928V90.9915H167.928H179.928V59.8332H167.928ZM167.928 90.9915V78.9915H146.87V90.9915V102.991H167.928V90.9915ZM146.87 90.9915H158.87V62.5012H146.87H134.87V90.9915H146.87ZM146.87 62.5012H158.87C158.87 57.7009 157.492 52.4337 153.446 48.2036L144.774 56.4983L136.102 64.7929C135.558 64.224 135.205 63.5899 135.017 63.051C134.844 62.5554 134.87 62.3177 134.87 62.5012H146.87ZM144.774 56.4983L153.805 48.5962C149.884 44.1154 144.593 42.2114 139.343 42.2114V54.2114V66.2114C139.146 66.2114 138.549 66.1756 137.759 65.8427C136.932 65.4945 136.237 64.9647 135.743 64.4003L144.774 56.4983ZM139.343 54.2114V42.2114C134.145 42.2114 128.773 44.0392 124.785 48.5962L133.816 56.4983L142.847 64.4003C142.318 65.0046 141.6 65.5347 140.786 65.8713C140.017 66.1898 139.465 66.2114 139.343 66.2114V54.2114ZM133.816 56.4983L124.954 48.407C121.078 52.6523 119.815 57.8451 119.815 62.5012H131.815H143.815C143.815 62.265 143.848 62.4455 143.7 62.8895C143.538 63.3748 143.217 63.9994 142.678 64.5895L133.816 56.4983ZM131.815 62.5012H119.815V90.9915H131.815H143.815V62.5012H131.815ZM131.815 90.9915V78.9915H110.662V90.9915V102.991H131.815V90.9915ZM110.662 90.9915H122.662V37.2507H110.662H98.6618V90.9915H110.662ZM110.662 37.2507V49.2507H131.815V37.2507V25.2507H110.662V37.2507ZM131.815 37.2507H119.815V45.4452H131.815H143.815V37.2507H131.815ZM131.815 45.4452L141.876 51.985C142.459 51.088 143.243 50.3105 144.421 49.6257L138.39 39.2516L132.358 28.8776C128.073 31.369 124.474 34.7205 121.754 38.9053L131.815 45.4452ZM138.39 39.2516L144.318 49.6851C144.997 49.2994 146.179 48.8695 148.299 48.8695V36.8695V24.8695C142.797 24.8695 137.373 26.0277 132.462 28.8182L138.39 39.2516ZM210.546 72.9826H222.546V60.9826H210.546V72.9826ZM210.546 90.9915V102.991H222.546V90.9915H210.546ZM180.436 54.8784H192.436V42.8784H180.436V54.8784ZM173.766 54.8784H161.766V66.8784H173.766V54.8784ZM173.766 37.2507V25.2507H161.766V37.2507H173.766ZM180.436 37.2507V49.2507H192.436V37.2507H180.436ZM180.436 24.2919V12.2919H168.436V24.2919H180.436ZM201.589 24.2919H213.589V12.2919H201.589V24.2919ZM201.589 37.2507H189.589V49.2507H201.589V37.2507ZM210.355 37.2507H222.355V25.2507H210.355V37.2507ZM210.355 54.8784V66.8784H222.355V54.8784H210.355ZM201.589 54.8784V42.8784H189.589V54.8784H201.589ZM202.447 72.125L193.961 80.6103L194.184 80.8334L194.419 81.0445L202.447 72.125ZM210.546 72.9826H198.546V90.9915H210.546H222.546V72.9826H210.546ZM210.546 90.9915V78.9915H202.542V90.9915V102.991H210.546V90.9915ZM202.542 90.9915V78.9915C197.01 78.9915 195.068 77.6208 194.429 76.9852C193.8 76.359 192.436 74.4547 192.436 68.9806H180.436H168.436C168.436 78.1804 170.756 87.2816 177.495 93.9923C184.226 100.694 193.337 102.991 202.542 102.991V90.9915ZM180.436 68.9806H192.436V54.8784H180.436H168.436V68.9806H180.436ZM180.436 54.8784V42.8784H173.766V54.8784V66.8784H180.436V54.8784ZM173.766 54.8784H185.766V37.2507H173.766H161.766V54.8784H173.766ZM173.766 37.2507V49.2507H180.436V37.2507V25.2507H173.766V37.2507ZM180.436 37.2507H192.436V24.2919H180.436H168.436V37.2507H180.436ZM180.436 24.2919V36.2919H201.589V24.2919V12.2919H180.436V24.2919ZM201.589 24.2919H189.589V37.2507H201.589H213.589V24.2919H201.589ZM201.589 37.2507V49.2507H210.355V37.2507V25.2507H201.589V37.2507ZM210.355 37.2507H198.355V54.8784H210.355H222.355V37.2507H210.355ZM210.355 54.8784V42.8784H201.589V54.8784V66.8784H210.355V54.8784ZM201.589 54.8784H189.589V69.3617H201.589H213.589V54.8784H201.589ZM201.589 69.3617H189.589C189.589 72.0516 190.141 76.7902 193.961 80.6103L202.447 72.125L210.932 63.6397C213.609 66.3164 213.589 69.2128 213.589 69.3617H201.589ZM202.447 72.125L194.419 81.0445C198.29 84.5284 202.902 84.9826 205.496 84.9826V72.9826V60.9826C205.564 60.9826 206.107 60.9838 206.934 61.2164C207.791 61.4573 209.138 62.0028 210.474 63.2055L202.447 72.125ZM205.496 72.9826V84.9826H210.546V72.9826V60.9826H205.496V72.9826ZM218.602 49.4472L207.74 44.3455L207.723 44.3819L207.706 44.4185L218.602 49.4472ZM226.606 39.9186L233.085 50.019L233.152 49.976L233.219 49.9322L226.606 39.9186ZM246.997 38.7752L241.015 49.1781L241.114 49.2349L241.214 49.2898L246.997 38.7752ZM252.809 44.5876L242.244 50.2768L264.809 44.5876H252.809ZM252.809 37.2507V25.2507H240.809V37.2507H252.809ZM273.867 37.2507H285.867V25.2507H273.867V37.2507ZM273.867 90.9915V102.991H285.867V90.9915H273.867ZM252.809 90.9915H240.809V102.991H252.809V90.9915ZM252.809 83.6545H264.809L242.244 77.9653L252.809 83.6545ZM246.997 89.5622L252.78 100.077L252.88 100.022L252.979 99.9651L246.997 89.5622ZM226.606 88.4188L219.993 98.4323L220.059 98.4762L220.126 98.5191L226.606 88.4188ZM218.602 78.8902L207.678 83.8559L207.723 83.9563L207.771 84.0559L218.602 78.8902ZM250.618 57.4511L259.449 49.3264L259.449 49.3264L250.618 57.4511ZM239.374 57.4511L230.543 49.3264L230.543 49.3264L239.374 57.4511ZM215.743 64.1211H227.743C227.743 59.7928 228.474 56.6934 229.497 54.4759L218.602 49.4472L207.706 44.4185C204.918 50.4589 203.743 57.1422 203.743 64.1211H215.743ZM218.602 49.4472L229.463 54.5488C230.627 52.0722 231.906 50.7757 233.085 50.019L226.606 39.9186L220.126 29.8183C214.572 33.3812 210.516 38.437 207.74 44.3455L218.602 49.4472ZM226.606 39.9186L233.219 49.9322C234.544 49.0572 236.006 48.5837 237.945 48.5837V36.5837V24.5837C231.498 24.5837 225.402 26.3335 219.993 29.9051L226.606 39.9186ZM237.945 36.5837V48.5837C239.743 48.5837 240.615 48.948 241.015 49.1781L246.997 38.7752L252.979 28.3723C248.297 25.6803 243.134 24.5837 237.945 24.5837V36.5837ZM246.997 38.7752L241.214 49.2898C241.795 49.6092 242.041 49.8999 242.244 50.2768L252.809 44.5876L263.375 38.8984C260.91 34.3205 257.281 30.7363 252.78 28.2606L246.997 38.7752ZM252.809 44.5876H264.809V37.2507H252.809H240.809V44.5876H252.809ZM252.809 37.2507V49.2507H273.867V37.2507V25.2507H252.809V37.2507ZM273.867 37.2507H261.867V90.9915H273.867H285.867V37.2507H273.867ZM273.867 90.9915V78.9915H252.809V90.9915V102.991H273.867V90.9915ZM252.809 90.9915H264.809V83.6545H252.809H240.809V90.9915H252.809ZM252.809 83.6545L242.244 77.9653C242.014 78.391 241.704 78.7633 241.015 79.1593L246.997 89.5622L252.979 99.9651C257.372 97.4389 260.936 93.8728 263.375 89.3437L252.809 83.6545ZM246.997 89.5622L241.214 79.0476C240.774 79.2896 239.829 79.6585 237.945 79.6585V91.6585V103.658C243.048 103.658 248.138 102.63 252.78 100.077L246.997 89.5622ZM237.945 91.6585V79.6585C235.933 79.6585 234.423 79.1766 233.085 78.3184L226.606 88.4188L220.126 98.5191C225.522 101.981 231.571 103.658 237.945 103.658V91.6585ZM226.606 88.4188L233.219 78.4052C231.907 77.5387 230.592 76.1536 229.433 73.7246L218.602 78.8902L207.771 84.0559C210.551 89.885 214.572 94.8521 219.993 98.4323L226.606 88.4188ZM218.602 78.8902L229.526 73.9246C228.472 71.6045 227.743 68.4424 227.743 64.1211H215.743H203.743C203.743 71.1069 204.921 77.7909 207.678 83.8559L218.602 78.8902ZM252.809 64.1211H264.809C264.809 59.252 263.536 53.769 259.449 49.3264L250.618 57.4511L241.787 65.5758C241.263 65.0066 240.984 64.4308 240.861 64.0555C240.752 63.7248 240.809 63.6928 240.809 64.1211H252.809ZM250.618 57.4511L259.449 49.3264C255.567 45.1072 250.413 43.069 244.996 43.069V55.069V67.069C244.729 67.069 244.151 67.0172 243.435 66.7135C242.702 66.403 242.144 65.9639 241.787 65.5758L250.618 57.4511ZM244.996 55.069V43.069C239.579 43.069 234.425 45.1072 230.543 49.3264L239.374 57.4511L248.205 65.5758C247.848 65.9639 247.29 66.403 246.557 66.7135C245.84 67.0172 245.262 67.069 244.996 67.069V55.069ZM239.374 57.4511L230.543 49.3264C226.456 53.769 225.183 59.252 225.183 64.1211H237.183H249.183C249.183 63.6928 249.239 63.7248 249.131 64.0555C249.007 64.4308 248.729 65.0066 248.205 65.5758L239.374 57.4511ZM237.183 64.1211H225.183C225.183 68.9901 226.456 74.4731 230.543 78.9157L239.374 70.791L248.205 62.6663C248.729 63.2355 249.007 63.8113 249.131 64.1866C249.239 64.5173 249.183 64.5493 249.183 64.1211H237.183ZM239.374 70.791L230.543 78.9157C234.425 83.1349 239.579 85.1731 244.996 85.1731V73.1731V61.1731C245.262 61.1731 245.84 61.2249 246.557 61.5286C247.29 61.8392 247.848 62.2783 248.205 62.6663L239.374 70.791ZM244.996 73.1731V85.1731C250.413 85.1731 255.567 83.1349 259.449 78.9157L250.618 70.791L241.787 62.6663C242.144 62.2783 242.702 61.8392 243.435 61.5286C244.151 61.2249 244.729 61.1731 244.996 61.1731V73.1731ZM250.618 70.791L259.449 78.9157C263.536 74.4731 264.809 68.9901 264.809 64.1211H252.809H240.809C240.809 64.5493 240.752 64.5173 240.861 64.1866C240.984 63.8113 241.263 63.2355 241.787 62.6663L250.618 70.791ZM304.519 47.1603H292.519V85.504L314.378 54.0013L304.519 47.1603ZM312.428 39.7281L318.54 50.055L318.617 50.0092L318.694 49.9623L312.428 39.7281ZM322.147 36.8695H334.147V24.8695H322.147V36.8695ZM322.147 59.4521V71.4521H334.147V59.4521H322.147ZM307.283 61.5484L300.186 51.8715L300.108 51.9292L300.03 51.9881L307.283 61.5484ZM304.519 90.9915V102.991H316.519V90.9915H304.519ZM283.366 90.9915H271.366V102.991H283.366V90.9915ZM283.366 37.2507V25.2507H271.366V37.2507H283.366ZM304.519 37.2507H316.519V25.2507H304.519V37.2507ZM304.519 47.1603L314.378 54.0013C315.602 52.2377 316.983 50.9765 318.54 50.055L312.428 39.7281L306.316 29.4012C301.648 32.164 297.756 35.8576 294.66 40.3193L304.519 47.1603ZM312.428 39.7281L318.694 49.9623C320.085 49.1107 321.177 48.8695 322.147 48.8695V36.8695V24.8695C316.384 24.8695 310.996 26.5341 306.162 29.4939L312.428 39.7281ZM322.147 36.8695H310.147V59.4521H322.147H334.147V36.8695H322.147ZM322.147 59.4521V47.4521H316.144V59.4521V71.4521H322.147V59.4521ZM316.144 59.4521V47.4521C311.185 47.4521 305.144 48.2359 300.186 51.8715L307.283 61.5484L314.379 71.2252C313.724 71.7056 313.351 71.7341 313.69 71.6539C314.027 71.574 314.797 71.4521 316.144 71.4521V59.4521ZM307.283 61.5484L300.03 51.9881C293.864 56.6657 292.519 63.7386 292.519 68.9806H304.519H316.519C316.519 68.1668 316.634 68.1628 316.458 68.6364C316.241 69.2203 315.678 70.2414 314.535 71.1087L307.283 61.5484ZM304.519 68.9806H292.519V90.9915H304.519H316.519V68.9806H304.519ZM304.519 90.9915V78.9915H283.366V90.9915V102.991H304.519V90.9915ZM283.366 90.9915H295.366V37.2507H283.366H271.366V90.9915H283.366ZM283.366 37.2507V49.2507H304.519V37.2507V25.2507H283.366V37.2507ZM304.519 37.2507H292.519V47.1603H304.519H316.519V37.2507H304.519ZM368.627 90.9915L358.662 97.6778L362.228 102.991H368.627V90.9915ZM348.998 61.7389L358.963 55.0526L336.998 22.319V61.7389H348.998ZM348.998 90.9915V102.991H360.998V90.9915H348.998ZM327.845 90.9915H315.845V102.991H327.845V90.9915ZM327.845 23.5296V11.5296H315.845V23.5296H327.845ZM348.998 23.5296H360.998V11.5296H348.998V23.5296ZM348.998 51.9246H336.998V90.855L358.916 58.6805L348.998 51.9246ZM368.341 23.5296V11.5296H361.996L358.423 16.7737L368.341 23.5296ZM392.258 23.5296L401.997 30.5398L415.68 11.5296H392.258V23.5296ZM369.008 55.8313L359.268 48.8211L354.276 55.7572L359.198 62.7431L369.008 55.8313ZM393.782 90.9915V102.991H416.917L403.592 84.0796L393.782 90.9915ZM368.627 90.9915L378.591 84.3051L358.963 55.0526L348.998 61.7389L339.033 68.4253L358.662 97.6778L368.627 90.9915ZM348.998 61.7389H336.998V90.9915H348.998H360.998V61.7389H348.998ZM348.998 90.9915V78.9915H327.845V90.9915V102.991H348.998V90.9915ZM327.845 90.9915H339.845V23.5296H327.845H315.845V90.9915H327.845ZM327.845 23.5296V35.5296H348.998V23.5296V11.5296H327.845V23.5296ZM348.998 23.5296H336.998V51.9246H348.998H360.998V23.5296H348.998ZM348.998 51.9246L358.916 58.6805L378.258 30.2855L368.341 23.5296L358.423 16.7737L339.081 45.1687L348.998 51.9246ZM368.341 23.5296V35.5296H392.258V23.5296V11.5296H368.341V23.5296ZM392.258 23.5296L382.518 16.5195L359.268 48.8211L369.008 55.8313L378.747 62.8414L401.997 30.5398L392.258 23.5296ZM369.008 55.8313L359.198 62.7431L383.973 97.9033L393.782 90.9915L403.592 84.0796L378.817 48.9194L369.008 55.8313ZM393.782 90.9915V78.9915H368.627V90.9915V102.991H393.782V90.9915ZM401.584 30.009L409.541 21.0259L409.541 21.0259L401.584 30.009ZM401.584 15.0492L409.541 24.0323L409.612 23.9695L409.682 23.9056L401.584 15.0492ZM419.212 15.0492L411.115 23.9056L411.185 23.9695L411.256 24.0323L419.212 15.0492ZM419.212 30.009L411.256 21.0259L411.256 21.0259L419.212 30.009ZM420.927 37.2507H432.927V25.2507H420.927V37.2507ZM420.927 90.9915V102.991H432.927V90.9915H420.927ZM399.774 90.9915H387.774V102.991H399.774V90.9915ZM399.774 37.2507V25.2507H387.774V37.2507H399.774ZM410.446 32.9628V20.9628C409.663 20.9628 409.315 20.8577 409.262 20.8402C409.237 20.832 409.269 20.8404 409.336 20.8785C409.404 20.9173 409.476 20.9685 409.541 21.0259L401.584 30.009L393.628 38.9921C398.539 43.3417 404.563 44.9628 410.446 44.9628V32.9628ZM401.584 30.009L409.541 21.0259C409.583 21.0635 409.827 21.3056 410.031 21.7613C410.125 21.9707 410.184 22.1665 410.217 22.3279C410.233 22.4056 410.241 22.4677 410.245 22.5113C410.249 22.5548 410.249 22.5774 410.249 22.5768H398.249H386.249C386.249 28.9767 388.818 34.7316 393.628 38.9921L401.584 30.009ZM398.249 22.5768H410.249C410.249 22.5397 410.249 22.8306 410.055 23.2688C409.857 23.7149 409.611 23.9703 409.541 24.0323L401.584 15.0492L393.628 6.06618C388.756 10.3814 386.249 16.197 386.249 22.5768H398.249ZM401.584 15.0492L409.682 23.9056C409.623 23.9588 409.552 24.0117 409.479 24.0552C409.406 24.098 409.363 24.1123 409.372 24.1095C409.39 24.1032 409.7 24.0001 410.446 24.0001V12.0001V0.000112154C404.466 0.000112154 398.39 1.70976 393.487 6.19289L401.584 15.0492ZM410.446 12.0001V24.0001C410.791 24.0001 411.034 24.0244 411.188 24.0485C411.341 24.0722 411.409 24.0957 411.411 24.0964C411.412 24.0969 411.401 24.093 411.379 24.083C411.358 24.0729 411.329 24.0583 411.296 24.0387C411.225 23.997 411.162 23.949 411.115 23.9056L419.212 15.0492L427.309 6.19289C422.444 1.7447 416.425 0.000112154 410.446 0.000112154V12.0001ZM419.212 15.0492L411.256 24.0323C411.186 23.9703 410.939 23.7149 410.742 23.2688C410.548 22.8306 410.547 22.5397 410.547 22.5768H422.547H434.547C434.547 16.197 432.04 10.3814 427.168 6.06618L419.212 15.0492ZM422.547 22.5768H410.547C410.547 22.5774 410.547 22.5548 410.551 22.5113C410.555 22.4677 410.564 22.4056 410.58 22.3279C410.612 22.1665 410.671 21.9707 410.765 21.7613C410.969 21.3056 411.213 21.0635 411.256 21.0259L419.212 30.009L427.168 38.9921C431.979 34.7316 434.547 28.9767 434.547 22.5768H422.547ZM419.212 30.009L411.256 21.0259C411.31 20.9781 411.374 20.9316 411.439 20.8943C411.503 20.8575 411.537 20.8473 411.521 20.8526C411.489 20.8636 411.175 20.9628 410.446 20.9628V32.9628V44.9628C416.326 44.9628 422.295 43.3086 427.168 38.9921L419.212 30.009ZM420.927 37.2507H408.927V90.9915H420.927H432.927V37.2507H420.927ZM420.927 90.9915V78.9915H399.774V90.9915V102.991H420.927V90.9915ZM399.774 90.9915H411.774V37.2507H399.774H387.774V90.9915H399.774ZM399.774 37.2507V49.2507H420.927V37.2507V25.2507H399.774V37.2507ZM451.634 20.4805H463.634V8.48049H451.634V20.4805ZM451.634 90.9915V102.991H463.634V90.9915H451.634ZM430.481 90.9915H418.481V102.991H430.481V90.9915ZM430.481 20.4805V8.48049H418.481V20.4805H430.481ZM451.634 20.4805H439.634V90.9915H451.634H463.634V20.4805H451.634ZM451.634 90.9915V78.9915H430.481V90.9915V102.991H451.634V90.9915ZM430.481 90.9915H442.481V20.4805H430.481H418.481V90.9915H430.481ZM430.481 20.4805V32.4805H451.634V20.4805V8.48049H430.481V20.4805ZM461.188 49.4472L450.327 44.3455L450.309 44.3819L450.293 44.4185L461.188 49.4472ZM469.192 39.9186L475.671 50.019L475.738 49.976L475.805 49.9322L469.192 39.9186ZM489.583 38.7752L483.601 49.1781L483.7 49.2349L483.8 49.2898L489.583 38.7752ZM495.395 44.5876L484.83 50.2768L507.395 44.5876H495.395ZM495.395 37.2507V25.2507H483.395V37.2507H495.395ZM516.453 37.2507H528.453V25.2507H516.453V37.2507ZM516.453 90.9915V102.991H528.453V90.9915H516.453ZM495.395 90.9915H483.395V102.991H495.395V90.9915ZM495.395 83.6545H507.395L484.83 77.9653L495.395 83.6545ZM489.583 89.5622L495.366 100.077L495.466 100.022L495.565 99.9651L489.583 89.5622ZM469.192 88.4188L462.579 98.4323L462.646 98.4762L462.713 98.5191L469.192 88.4188ZM461.188 78.8902L450.264 83.8559L450.309 83.9563L450.357 84.0559L461.188 78.8902ZM493.204 57.4511L502.035 49.3264L502.035 49.3264L493.204 57.4511ZM481.96 57.4511L473.129 49.3264L473.129 49.3264L481.96 57.4511ZM458.33 64.1211H470.33C470.33 59.7928 471.06 56.6934 472.084 54.4759L461.188 49.4472L450.293 44.4185C447.505 50.4589 446.33 57.1422 446.33 64.1211H458.33ZM461.188 49.4472L472.05 54.5488C473.213 52.0722 474.492 50.7757 475.671 50.019L469.192 39.9186L462.713 29.8183C457.159 33.3812 453.102 38.437 450.327 44.3455L461.188 49.4472ZM469.192 39.9186L475.805 49.9322C477.13 49.0572 478.592 48.5837 480.531 48.5837V36.5837V24.5837C474.084 24.5837 467.988 26.3335 462.579 29.9051L469.192 39.9186ZM480.531 36.5837V48.5837C482.33 48.5837 483.201 48.948 483.601 49.1781L489.583 38.7752L495.565 28.3723C490.883 25.6803 485.72 24.5837 480.531 24.5837V36.5837ZM489.583 38.7752L483.8 49.2898C484.381 49.6092 484.627 49.8999 484.83 50.2768L495.395 44.5876L505.961 38.8984C503.496 34.3205 499.867 30.7363 495.366 28.2606L489.583 38.7752ZM495.395 44.5876H507.395V37.2507H495.395H483.395V44.5876H495.395ZM495.395 37.2507V49.2507H516.453V37.2507V25.2507H495.395V37.2507ZM516.453 37.2507H504.453V90.9915H516.453H528.453V37.2507H516.453ZM516.453 90.9915V78.9915H495.395V90.9915V102.991H516.453V90.9915ZM495.395 90.9915H507.395V83.6545H495.395H483.395V90.9915H495.395ZM495.395 83.6545L484.83 77.9653C484.601 78.391 484.29 78.7633 483.601 79.1593L489.583 89.5622L495.565 99.9651C499.958 97.4389 503.522 93.8728 505.961 89.3437L495.395 83.6545ZM489.583 89.5622L483.8 79.0476C483.36 79.2896 482.415 79.6585 480.531 79.6585V91.6585V103.658C485.634 103.658 490.724 102.63 495.366 100.077L489.583 89.5622ZM480.531 91.6585V79.6585C478.519 79.6585 477.009 79.1766 475.671 78.3184L469.192 88.4188L462.713 98.5191C468.108 101.981 474.158 103.658 480.531 103.658V91.6585ZM469.192 88.4188L475.805 78.4052C474.493 77.5387 473.178 76.1536 472.019 73.7246L461.188 78.8902L450.357 84.0559C453.137 89.885 457.158 94.8521 462.579 98.4323L469.192 88.4188ZM461.188 78.8902L472.112 73.9246C471.058 71.6045 470.33 68.4424 470.33 64.1211H458.33H446.33C446.33 71.1069 447.507 77.7909 450.264 83.8559L461.188 78.8902ZM495.395 64.1211H507.395C507.395 59.252 506.122 53.769 502.035 49.3264L493.204 57.4511L484.373 65.5758C483.849 65.0066 483.57 64.4308 483.447 64.0555C483.339 63.7248 483.395 63.6928 483.395 64.1211H495.395ZM493.204 57.4511L502.035 49.3264C498.153 45.1072 492.999 43.069 487.582 43.069V55.069V67.069C487.316 67.069 486.738 67.0172 486.021 66.7135C485.288 66.403 484.73 65.9639 484.373 65.5758L493.204 57.4511ZM487.582 55.069V43.069C482.165 43.069 477.011 45.1072 473.129 49.3264L481.96 57.4511L490.791 65.5758C490.434 65.9639 489.876 66.403 489.143 66.7135C488.427 67.0172 487.849 67.069 487.582 67.069V55.069ZM481.96 57.4511L473.129 49.3264C469.042 53.769 467.769 59.252 467.769 64.1211H479.769H491.769C491.769 63.6928 491.826 63.7248 491.717 64.0555C491.594 64.4308 491.315 65.0066 490.791 65.5758L481.96 57.4511ZM479.769 64.1211H467.769C467.769 68.9901 469.042 74.4731 473.129 78.9157L481.96 70.791L490.791 62.6663C491.315 63.2355 491.594 63.8113 491.717 64.1866C491.826 64.5173 491.769 64.5493 491.769 64.1211H479.769ZM481.96 70.791L473.129 78.9157C477.011 83.1349 482.165 85.1731 487.582 85.1731V73.1731V61.1731C487.849 61.1731 488.427 61.2249 489.143 61.5286C489.876 61.8392 490.434 62.2783 490.791 62.6663L481.96 70.791ZM487.582 73.1731V85.1731C492.999 85.1731 498.153 83.1349 502.035 78.9157L493.204 70.791L484.373 62.6663C484.73 62.2783 485.288 61.8392 486.021 61.5286C486.738 61.2249 487.316 61.1731 487.582 61.1731V73.1731ZM493.204 70.791L502.035 78.9157C506.122 74.4731 507.395 68.9901 507.395 64.1211H495.395H483.395C483.395 64.5493 483.339 64.5173 483.447 64.1866C483.57 63.8113 483.849 63.2355 484.373 62.6663L493.204 70.791ZM559.397 72.9826H571.397V60.9826H559.397V72.9826ZM559.397 90.9915V102.991H571.397V90.9915H559.397ZM529.287 54.8784H541.287V42.8784H529.287V54.8784ZM522.617 54.8784H510.617V66.8784H522.617V54.8784ZM522.617 37.2507V25.2507H510.617V37.2507H522.617ZM529.287 37.2507V49.2507H541.287V37.2507H529.287ZM529.287 24.2919V12.2919H517.287V24.2919H529.287ZM550.44 24.2919H562.44V12.2919H550.44V24.2919ZM550.44 37.2507H538.44V49.2507H550.44V37.2507ZM559.207 37.2507H571.207V25.2507H559.207V37.2507ZM559.207 54.8784V66.8784H571.207V54.8784H559.207ZM550.44 54.8784V42.8784H538.44V54.8784H550.44ZM551.298 72.125L542.813 80.6103L543.036 80.8334L543.27 81.0445L551.298 72.125ZM559.397 72.9826H547.397V90.9915H559.397H571.397V72.9826H559.397ZM559.397 90.9915V78.9915H551.393V90.9915V102.991H559.397V90.9915ZM551.393 90.9915V78.9915C545.861 78.9915 543.919 77.6208 543.281 76.9852C542.652 76.359 541.287 74.4547 541.287 68.9806H529.287H517.287C517.287 78.1804 519.607 87.2816 526.347 93.9923C533.077 100.694 542.188 102.991 551.393 102.991V90.9915ZM529.287 68.9806H541.287V54.8784H529.287H517.287V68.9806H529.287ZM529.287 54.8784V42.8784H522.617V54.8784V66.8784H529.287V54.8784ZM522.617 54.8784H534.617V37.2507H522.617H510.617V54.8784H522.617ZM522.617 37.2507V49.2507H529.287V37.2507V25.2507H522.617V37.2507ZM529.287 37.2507H541.287V24.2919H529.287H517.287V37.2507H529.287ZM529.287 24.2919V36.2919H550.44V24.2919V12.2919H529.287V24.2919ZM550.44 24.2919H538.44V37.2507H550.44H562.44V24.2919H550.44ZM550.44 37.2507V49.2507H559.207V37.2507V25.2507H550.44V37.2507ZM559.207 37.2507H547.207V54.8784H559.207H571.207V37.2507H559.207ZM559.207 54.8784V42.8784H550.44V54.8784V66.8784H559.207V54.8784ZM550.44 54.8784H538.44V69.3617H550.44H562.44V54.8784H550.44ZM550.44 69.3617H538.44C538.44 72.0516 538.993 76.7902 542.813 80.6103L551.298 72.125L559.783 63.6397C562.46 66.3164 562.44 69.2128 562.44 69.3617H550.44ZM551.298 72.125L543.27 81.0445C547.141 84.5284 551.753 84.9826 554.347 84.9826V72.9826V60.9826C554.415 60.9826 554.959 60.9838 555.786 61.2164C556.642 61.4573 557.989 62.0028 559.326 63.2055L551.298 72.125ZM554.347 72.9826V84.9826H559.397V72.9826V60.9826H554.347V72.9826Z" fill="white" mask="url(#path-1-outside-1_556_14)"/>
<mask id="path-3-outside-2_556_14" maskUnits="userSpaceOnUse" x="8" y="1.99146" width="562" height="100" fill="black">
<rect fill="white" x="8" y="1.99146" width="562" height="100"/>
<path d="M73.2453 46.6839C73.2453 50.94 72.2607 54.8149 70.2914 58.3087C68.3222 61.7389 65.4001 64.4704 61.5252 66.5032C57.7138 68.5359 53.0766 69.5523 47.6136 69.5523H39.2285V90.9915H18.0752V23.5296H47.6136C55.8716 23.5296 62.1922 25.6259 66.5753 29.8184C71.0219 34.011 73.2453 39.6328 73.2453 46.6839ZM45.2314 52.8774C49.6146 52.8774 51.8061 50.8129 51.8061 46.6839C51.8061 42.5549 49.6146 40.4904 45.2314 40.4904H39.2285V52.8774H45.2314ZM90.6266 32.9628C86.9422 32.9628 83.9884 31.9782 81.7651 30.009C79.5418 28.0398 78.4301 25.5624 78.4301 22.5768C78.4301 19.5276 79.5418 17.0185 81.7651 15.0492C83.9884 13.0165 86.9422 12.0001 90.6266 12.0001C94.2474 12.0001 97.1695 13.0165 99.3928 15.0492C101.616 17.0185 102.728 19.5276 102.728 22.5768C102.728 25.5624 101.616 28.0398 99.3928 30.009C97.1695 31.9782 94.2474 32.9628 90.6266 32.9628ZM101.108 37.2507V90.9915H79.9547V37.2507H101.108ZM148.299 36.8695C154.461 36.8695 159.257 38.934 162.687 43.0631C166.181 47.1921 167.928 52.7821 167.928 59.8332V90.9915H146.87V62.5012C146.87 59.9603 146.171 57.9593 144.774 56.4983C143.44 54.9737 141.629 54.2114 139.343 54.2114C136.992 54.2114 135.15 54.9737 133.816 56.4983C132.482 57.9593 131.815 59.9603 131.815 62.5012V90.9915H110.662V37.2507H131.815V45.4452C133.467 42.9042 135.658 40.8397 138.39 39.2516C141.185 37.6636 144.488 36.8695 148.299 36.8695ZM210.546 72.9826V90.9915H202.542C187.804 90.9915 180.436 83.6545 180.436 68.9806V54.8784H173.766V37.2507H180.436V24.2919H201.589V37.2507H210.355V54.8784H201.589V69.3617C201.589 70.6322 201.875 71.5533 202.447 72.125C203.082 72.6967 204.098 72.9826 205.496 72.9826H210.546ZM215.743 64.1211C215.743 58.4675 216.696 53.5762 218.602 49.4472C220.571 45.2546 223.239 42.0784 226.606 39.9186C229.973 37.6953 233.752 36.5837 237.945 36.5837C241.439 36.5837 244.456 37.3142 246.997 38.7752C249.538 40.1727 251.475 42.1102 252.809 44.5876V37.2507H273.867V90.9915H252.809V83.6545C251.475 86.1319 249.538 88.1011 246.997 89.5622C244.456 90.9597 241.439 91.6585 237.945 91.6585C233.752 91.6585 229.973 90.5786 226.606 88.4188C223.239 86.1954 220.571 83.0193 218.602 78.8902C216.696 74.6977 215.743 69.7746 215.743 64.1211ZM252.809 64.1211C252.809 61.2625 252.079 59.0392 250.618 57.4511C249.157 55.863 247.283 55.069 244.996 55.069C242.709 55.069 240.835 55.863 239.374 57.4511C237.913 59.0392 237.183 61.2625 237.183 64.1211C237.183 66.9796 237.913 69.2029 239.374 70.791C240.835 72.3791 242.709 73.1731 244.996 73.1731C247.283 73.1731 249.157 72.3791 250.618 70.791C252.079 69.2029 252.809 66.9796 252.809 64.1211ZM304.519 47.1603C306.679 44.0477 309.315 41.5703 312.428 39.7281C315.541 37.8224 318.78 36.8695 322.147 36.8695V59.4521H316.144C312.142 59.4521 309.188 60.1508 307.283 61.5484C305.44 62.9459 304.519 65.4233 304.519 68.9806V90.9915H283.366V37.2507H304.519V47.1603ZM368.627 90.9915L348.998 61.7389V90.9915H327.845V23.5296H348.998V51.9246L368.341 23.5296H392.258L369.008 55.8313L393.782 90.9915H368.627ZM410.446 32.9628C406.761 32.9628 403.808 31.9782 401.584 30.009C399.361 28.0398 398.249 25.5624 398.249 22.5768C398.249 19.5276 399.361 17.0185 401.584 15.0492C403.808 13.0165 406.761 12.0001 410.446 12.0001C414.067 12.0001 416.989 13.0165 419.212 15.0492C421.435 17.0185 422.547 19.5276 422.547 22.5768C422.547 25.5624 421.435 28.0398 419.212 30.009C416.989 31.9782 414.067 32.9628 410.446 32.9628ZM420.927 37.2507V90.9915H399.774V37.2507H420.927ZM451.634 20.4805V90.9915H430.481V20.4805H451.634ZM458.33 64.1211C458.33 58.4675 459.282 53.5762 461.188 49.4472C463.157 45.2546 465.825 42.0784 469.192 39.9186C472.559 37.6953 476.338 36.5837 480.531 36.5837C484.025 36.5837 487.042 37.3142 489.583 38.7752C492.124 40.1727 494.061 42.1102 495.395 44.5876V37.2507H516.453V90.9915H495.395V83.6545C494.061 86.1319 492.124 88.1011 489.583 89.5622C487.042 90.9597 484.025 91.6585 480.531 91.6585C476.338 91.6585 472.559 90.5786 469.192 88.4188C465.825 86.1954 463.157 83.0193 461.188 78.8902C459.282 74.6977 458.33 69.7746 458.33 64.1211ZM495.395 64.1211C495.395 61.2625 494.665 59.0392 493.204 57.4511C491.743 55.863 489.869 55.069 487.582 55.069C485.295 55.069 483.421 55.863 481.96 57.4511C480.499 59.0392 479.769 61.2625 479.769 64.1211C479.769 66.9796 480.499 69.2029 481.96 70.791C483.421 72.3791 485.295 73.1731 487.582 73.1731C489.869 73.1731 491.743 72.3791 493.204 70.791C494.665 69.2029 495.395 66.9796 495.395 64.1211ZM559.397 72.9826V90.9915H551.393C536.656 90.9915 529.287 83.6545 529.287 68.9806V54.8784H522.617V37.2507H529.287V24.2919H550.44V37.2507H559.207V54.8784H550.44V69.3617C550.44 70.6322 550.726 71.5533 551.298 72.125C551.933 72.6967 552.95 72.9826 554.347 72.9826H559.397Z"/>
</mask>
<path d="M73.2453 46.6839C73.2453 50.94 72.2607 54.8149 70.2914 58.3087C68.3222 61.7389 65.4001 64.4704 61.5252 66.5032C57.7138 68.5359 53.0766 69.5523 47.6136 69.5523H39.2285V90.9915H18.0752V23.5296H47.6136C55.8716 23.5296 62.1922 25.6259 66.5753 29.8184C71.0219 34.011 73.2453 39.6328 73.2453 46.6839ZM45.2314 52.8774C49.6146 52.8774 51.8061 50.8129 51.8061 46.6839C51.8061 42.5549 49.6146 40.4904 45.2314 40.4904H39.2285V52.8774H45.2314ZM90.6266 32.9628C86.9422 32.9628 83.9884 31.9782 81.7651 30.009C79.5418 28.0398 78.4301 25.5624 78.4301 22.5768C78.4301 19.5276 79.5418 17.0185 81.7651 15.0492C83.9884 13.0165 86.9422 12.0001 90.6266 12.0001C94.2474 12.0001 97.1695 13.0165 99.3928 15.0492C101.616 17.0185 102.728 19.5276 102.728 22.5768C102.728 25.5624 101.616 28.0398 99.3928 30.009C97.1695 31.9782 94.2474 32.9628 90.6266 32.9628ZM101.108 37.2507V90.9915H79.9547V37.2507H101.108ZM148.299 36.8695C154.461 36.8695 159.257 38.934 162.687 43.0631C166.181 47.1921 167.928 52.7821 167.928 59.8332V90.9915H146.87V62.5012C146.87 59.9603 146.171 57.9593 144.774 56.4983C143.44 54.9737 141.629 54.2114 139.343 54.2114C136.992 54.2114 135.15 54.9737 133.816 56.4983C132.482 57.9593 131.815 59.9603 131.815 62.5012V90.9915H110.662V37.2507H131.815V45.4452C133.467 42.9042 135.658 40.8397 138.39 39.2516C141.185 37.6636 144.488 36.8695 148.299 36.8695ZM210.546 72.9826V90.9915H202.542C187.804 90.9915 180.436 83.6545 180.436 68.9806V54.8784H173.766V37.2507H180.436V24.2919H201.589V37.2507H210.355V54.8784H201.589V69.3617C201.589 70.6322 201.875 71.5533 202.447 72.125C203.082 72.6967 204.098 72.9826 205.496 72.9826H210.546ZM215.743 64.1211C215.743 58.4675 216.696 53.5762 218.602 49.4472C220.571 45.2546 223.239 42.0784 226.606 39.9186C229.973 37.6953 233.752 36.5837 237.945 36.5837C241.439 36.5837 244.456 37.3142 246.997 38.7752C249.538 40.1727 251.475 42.1102 252.809 44.5876V37.2507H273.867V90.9915H252.809V83.6545C251.475 86.1319 249.538 88.1011 246.997 89.5622C244.456 90.9597 241.439 91.6585 237.945 91.6585C233.752 91.6585 229.973 90.5786 226.606 88.4188C223.239 86.1954 220.571 83.0193 218.602 78.8902C216.696 74.6977 215.743 69.7746 215.743 64.1211ZM252.809 64.1211C252.809 61.2625 252.079 59.0392 250.618 57.4511C249.157 55.863 247.283 55.069 244.996 55.069C242.709 55.069 240.835 55.863 239.374 57.4511C237.913 59.0392 237.183 61.2625 237.183 64.1211C237.183 66.9796 237.913 69.2029 239.374 70.791C240.835 72.3791 242.709 73.1731 244.996 73.1731C247.283 73.1731 249.157 72.3791 250.618 70.791C252.079 69.2029 252.809 66.9796 252.809 64.1211ZM304.519 47.1603C306.679 44.0477 309.315 41.5703 312.428 39.7281C315.541 37.8224 318.78 36.8695 322.147 36.8695V59.4521H316.144C312.142 59.4521 309.188 60.1508 307.283 61.5484C305.44 62.9459 304.519 65.4233 304.519 68.9806V90.9915H283.366V37.2507H304.519V47.1603ZM368.627 90.9915L348.998 61.7389V90.9915H327.845V23.5296H348.998V51.9246L368.341 23.5296H392.258L369.008 55.8313L393.782 90.9915H368.627ZM410.446 32.9628C406.761 32.9628 403.808 31.9782 401.584 30.009C399.361 28.0398 398.249 25.5624 398.249 22.5768C398.249 19.5276 399.361 17.0185 401.584 15.0492C403.808 13.0165 406.761 12.0001 410.446 12.0001C414.067 12.0001 416.989 13.0165 419.212 15.0492C421.435 17.0185 422.547 19.5276 422.547 22.5768C422.547 25.5624 421.435 28.0398 419.212 30.009C416.989 31.9782 414.067 32.9628 410.446 32.9628ZM420.927 37.2507V90.9915H399.774V37.2507H420.927ZM451.634 20.4805V90.9915H430.481V20.4805H451.634ZM458.33 64.1211C458.33 58.4675 459.282 53.5762 461.188 49.4472C463.157 45.2546 465.825 42.0784 469.192 39.9186C472.559 37.6953 476.338 36.5837 480.531 36.5837C484.025 36.5837 487.042 37.3142 489.583 38.7752C492.124 40.1727 494.061 42.1102 495.395 44.5876V37.2507H516.453V90.9915H495.395V83.6545C494.061 86.1319 492.124 88.1011 489.583 89.5622C487.042 90.9597 484.025 91.6585 480.531 91.6585C476.338 91.6585 472.559 90.5786 469.192 88.4188C465.825 86.1954 463.157 83.0193 461.188 78.8902C459.282 74.6977 458.33 69.7746 458.33 64.1211ZM495.395 64.1211C495.395 61.2625 494.665 59.0392 493.204 57.4511C491.743 55.863 489.869 55.069 487.582 55.069C485.295 55.069 483.421 55.863 481.96 57.4511C480.499 59.0392 479.769 61.2625 479.769 64.1211C479.769 66.9796 480.499 69.2029 481.96 70.791C483.421 72.3791 485.295 73.1731 487.582 73.1731C489.869 73.1731 491.743 72.3791 493.204 70.791C494.665 69.2029 495.395 66.9796 495.395 64.1211ZM559.397 72.9826V90.9915H551.393C536.656 90.9915 529.287 83.6545 529.287 68.9806V54.8784H522.617V37.2507H529.287V24.2919H550.44V37.2507H559.207V54.8784H550.44V69.3617C550.44 70.6322 550.726 71.5533 551.298 72.125C551.933 72.6967 552.95 72.9826 554.347 72.9826H559.397Z" fill="url(#paint0_linear_556_14)"/>
<path d="M70.2914 58.3087L78.964 63.2873L78.9836 63.2531L79.003 63.2188L70.2914 58.3087ZM61.5252 66.5032L56.8797 57.6477L56.8495 57.6636L56.8193 57.6797L61.5252 66.5032ZM39.2285 69.5523V59.5523H29.2285V69.5523H39.2285ZM39.2285 90.9915V100.991H49.2285V90.9915H39.2285ZM18.0752 90.9915H8.0752V100.991H18.0752V90.9915ZM18.0752 23.5296V13.5296H8.0752V23.5296H18.0752ZM66.5753 29.8184L59.6631 37.0448L59.689 37.0697L59.7152 37.0943L66.5753 29.8184ZM39.2285 40.4904V30.4904H29.2285V40.4904H39.2285ZM39.2285 52.8774H29.2285V62.8774H39.2285V52.8774ZM73.2453 46.6839H63.2453C63.2453 49.3287 62.6525 51.4956 61.5799 53.3985L70.2914 58.3087L79.003 63.2188C81.8688 58.1342 83.2453 52.5512 83.2453 46.6839H73.2453ZM70.2914 58.3087L61.6189 53.33C60.6952 54.939 59.2562 56.401 56.8797 57.6477L61.5252 66.5032L66.1707 75.3587C71.544 72.5399 75.9492 68.5388 78.964 63.2873L70.2914 58.3087ZM61.5252 66.5032L56.8193 57.6797C54.7897 58.7621 51.8601 59.5523 47.6136 59.5523V69.5523V79.5523C54.2931 79.5523 60.6379 78.3098 66.2311 75.3267L61.5252 66.5032ZM47.6136 69.5523V59.5523H39.2285V69.5523V79.5523H47.6136V69.5523ZM39.2285 69.5523H29.2285V90.9915H39.2285H49.2285V69.5523H39.2285ZM39.2285 90.9915V80.9915H18.0752V90.9915V100.991H39.2285V90.9915ZM18.0752 90.9915H28.0752V23.5296H18.0752H8.0752V90.9915H18.0752ZM18.0752 23.5296V33.5296H47.6136V23.5296V13.5296H18.0752V23.5296ZM47.6136 23.5296V33.5296C54.2445 33.5296 57.7288 35.1947 59.6631 37.0448L66.5753 29.8184L73.4875 22.592C66.6556 16.0571 57.4987 13.5296 47.6136 13.5296V23.5296ZM66.5753 29.8184L59.7152 37.0943C61.8442 39.1016 63.2453 41.9239 63.2453 46.6839H73.2453H83.2453C83.2453 37.3417 80.1997 28.9203 73.4354 22.5425L66.5753 29.8184ZM45.2314 52.8774V62.8774C48.8206 62.8774 53.3724 62.0435 57.0194 58.6079C60.7785 55.0667 61.8061 50.4476 61.8061 46.6839H51.8061H41.8061C41.8061 47.0492 41.7379 45.5268 43.3055 44.0501C44.7609 42.6791 46.0254 42.8774 45.2314 42.8774V52.8774ZM51.8061 46.6839H61.8061C61.8061 42.9202 60.7785 38.301 57.0194 34.7598C53.3724 31.3243 48.8206 30.4904 45.2314 30.4904V40.4904V50.4904C46.0254 50.4904 44.7609 50.6887 43.3055 49.3176C41.7379 47.8409 41.8061 46.3186 41.8061 46.6839H51.8061ZM45.2314 40.4904V30.4904H39.2285V40.4904V50.4904H45.2314V40.4904ZM39.2285 40.4904H29.2285V52.8774H39.2285H49.2285V40.4904H39.2285ZM39.2285 52.8774V62.8774H45.2314V52.8774V42.8774H39.2285V52.8774ZM81.7651 30.009L88.3954 22.5231L88.3954 22.5231L81.7651 30.009ZM81.7651 15.0492L88.3954 22.5351L88.4545 22.4828L88.5128 22.4295L81.7651 15.0492ZM99.3928 15.0492L92.6451 22.4295L92.7034 22.4828L92.7625 22.5351L99.3928 15.0492ZM99.3928 30.009L92.7625 22.5231L92.7625 22.5231L99.3928 30.009ZM101.108 37.2507H111.108V27.2507H101.108V37.2507ZM101.108 90.9915V100.991H111.108V90.9915H101.108ZM79.9547 90.9915H69.9547V100.991H79.9547V90.9915ZM79.9547 37.2507V27.2507H69.9547V37.2507H79.9547ZM90.6266 32.9628V22.9628C89.6675 22.9628 89.1002 22.8342 88.8102 22.7375C88.5494 22.6506 88.4492 22.5708 88.3954 22.5231L81.7651 30.009L75.1347 37.4949C79.5977 41.4478 85.1103 42.9628 90.6266 42.9628V32.9628ZM81.7651 30.009L88.3954 22.5231C88.3524 22.485 88.3263 22.4583 88.3134 22.4443C88.3005 22.4305 88.2993 22.4278 88.306 22.4368C88.3129 22.4459 88.3254 22.4638 88.3409 22.49C88.3565 22.5163 88.3725 22.5467 88.3874 22.5801C88.4024 22.6135 88.4142 22.6449 88.423 22.6724C88.4318 22.6997 88.4361 22.7186 88.4377 22.7267C88.4393 22.7345 88.4375 22.728 88.4353 22.7049C88.433 22.6815 88.4301 22.6395 88.4301 22.5768H78.4301H68.4301C68.4301 28.4077 70.7557 33.6163 75.1347 37.4949L81.7651 30.009ZM78.4301 22.5768H88.4301C88.4301 22.4995 88.4336 22.444 88.437 22.408C88.4405 22.3722 88.4439 22.3545 88.4444 22.3523C88.4447 22.3504 88.4427 22.3609 88.4362 22.3815C88.4297 22.4022 88.42 22.4287 88.4067 22.4587C88.3934 22.4887 88.3786 22.5176 88.3633 22.5437C88.348 22.5697 88.3349 22.5887 88.3265 22.6001C88.3181 22.6113 88.3168 22.6116 88.3262 22.6016C88.3356 22.5913 88.3574 22.5688 88.3954 22.5351L81.7651 15.0492L75.1347 7.56336C70.7042 11.4875 68.4301 16.7521 68.4301 22.5768H78.4301ZM81.7651 15.0492L88.5128 22.4295C88.5766 22.3712 88.6702 22.2979 88.9016 22.2183C89.1628 22.1284 89.6978 22.0001 90.6266 22.0001V12.0001V2.00011C85.0294 2.00011 79.4741 3.59421 75.0174 7.66895L81.7651 15.0492ZM90.6266 12.0001V22.0001C92.2822 22.0001 92.6234 22.4096 92.6451 22.4295L99.3928 15.0492L106.141 7.66895C101.716 3.62333 96.2126 2.00011 90.6266 2.00011V12.0001ZM99.3928 15.0492L92.7625 22.5351C92.8005 22.5688 92.8223 22.5913 92.8317 22.6016C92.8411 22.6116 92.8398 22.6113 92.8314 22.6001C92.823 22.5887 92.8099 22.5697 92.7946 22.5437C92.7793 22.5176 92.7645 22.4887 92.7512 22.4587C92.7379 22.4287 92.7282 22.4022 92.7217 22.3815C92.7152 22.3609 92.7132 22.3504 92.7136 22.3523C92.714 22.3545 92.7175 22.3722 92.7209 22.408C92.7243 22.444 92.7278 22.4995 92.7278 22.5768H102.728H112.728C112.728 16.7521 110.454 11.4875 106.023 7.56336L99.3928 15.0492ZM102.728 22.5768H92.7278C92.7278 22.6395 92.7249 22.6815 92.7226 22.7049C92.7204 22.728 92.7186 22.7345 92.7202 22.7267C92.7218 22.7186 92.7262 22.6997 92.7349 22.6724C92.7437 22.6449 92.7555 22.6135 92.7705 22.5801C92.7854 22.5467 92.8014 22.5163 92.817 22.49C92.8325 22.4638 92.845 22.4459 92.8519 22.4368C92.8586 22.4278 92.8574 22.4305 92.8446 22.4443C92.8316 22.4583 92.8055 22.485 92.7625 22.5231L99.3928 30.009L106.023 37.4949C110.402 33.6163 112.728 28.4077 112.728 22.5768H102.728ZM99.3928 30.009L92.7625 22.5231C92.7477 22.5362 92.3643 22.9628 90.6266 22.9628V32.9628V42.9628C96.1306 42.9628 101.591 41.4202 106.023 37.4949L99.3928 30.009ZM101.108 37.2507H91.108V90.9915H101.108H111.108V37.2507H101.108ZM101.108 90.9915V80.9915H79.9547V90.9915V100.991H101.108V90.9915ZM79.9547 90.9915H89.9547V37.2507H79.9547H69.9547V90.9915H79.9547ZM79.9547 37.2507V47.2507H101.108V37.2507V27.2507H79.9547V37.2507ZM162.687 43.0631L154.996 49.4532L155.024 49.488L155.054 49.5225L162.687 43.0631ZM167.928 90.9915V100.991H177.928V90.9915H167.928ZM146.87 90.9915H136.87V100.991H146.87V90.9915ZM144.774 56.4983L137.248 63.0833L137.394 63.2502L137.547 63.4105L144.774 56.4983ZM133.816 56.4983L141.201 63.2409L141.272 63.1629L141.342 63.0833L133.816 56.4983ZM131.815 90.9915V100.991H141.815V90.9915H131.815ZM110.662 90.9915H100.662V100.991H110.662V90.9915ZM110.662 37.2507V27.2507H100.662V37.2507H110.662ZM131.815 37.2507H141.815V27.2507H131.815V37.2507ZM131.815 45.4452H121.815V79.1788L140.2 50.8951L131.815 45.4452ZM138.39 39.2516L133.45 30.5571L133.406 30.5816L133.364 30.6066L138.39 39.2516ZM148.299 36.8695V46.8695C151.98 46.8695 153.759 47.9644 154.996 49.4532L162.687 43.0631L170.379 36.6729C164.756 29.9037 156.942 26.8695 148.299 26.8695V36.8695ZM162.687 43.0631L155.054 49.5225C156.606 51.3576 157.928 54.4175 157.928 59.8332H167.928H177.928C177.928 51.1468 175.756 43.0265 170.321 36.6036L162.687 43.0631ZM167.928 59.8332H157.928V90.9915H167.928H177.928V59.8332H167.928ZM167.928 90.9915V80.9915H146.87V90.9915V100.991H167.928V90.9915ZM146.87 90.9915H156.87V62.5012H146.87H136.87V90.9915H146.87ZM146.87 62.5012H156.87C156.87 58.0775 155.605 53.3546 152 49.586L144.774 56.4983L137.547 63.4105C137.392 63.2479 137.252 63.0658 137.137 62.8748C137.022 62.6851 136.949 62.5171 136.905 62.3916C136.819 62.1454 136.87 62.1365 136.87 62.5012H146.87ZM144.774 56.4983L152.3 49.9132C148.81 45.9251 144.099 44.2114 139.343 44.2114V54.2114V64.2114C139.369 64.2114 139.043 64.2133 138.535 63.9995C137.997 63.7728 137.548 63.4266 137.248 63.0833L144.774 56.4983ZM139.343 54.2114V44.2114C134.619 44.2114 129.835 45.8616 126.29 49.9132L133.816 56.4983L141.342 63.0833C141.012 63.4598 140.546 63.8063 140.022 64.0233C139.534 64.2251 139.249 64.2114 139.343 64.2114V54.2114ZM133.816 56.4983L126.431 49.7556C122.979 53.5368 121.815 58.1976 121.815 62.5012H131.815H141.815C141.815 62.0926 141.87 62.0538 141.802 62.257C141.767 62.3622 141.704 62.5167 141.599 62.6994C141.492 62.8837 141.358 63.0686 141.201 63.2409L133.816 56.4983ZM131.815 62.5012H121.815V90.9915H131.815H141.815V62.5012H131.815ZM131.815 90.9915V80.9915H110.662V90.9915V100.991H131.815V90.9915ZM110.662 90.9915H120.662V37.2507H110.662H100.662V90.9915H110.662ZM110.662 37.2507V47.2507H131.815V37.2507V27.2507H110.662V37.2507ZM131.815 37.2507H121.815V45.4452H131.815H141.815V37.2507H131.815ZM131.815 45.4452L140.2 50.8951C140.961 49.724 141.979 48.7321 143.416 47.8967L138.39 39.2516L133.364 30.6066C129.337 32.9474 125.973 36.0845 123.431 39.9953L131.815 45.4452ZM138.39 39.2516L143.33 47.9462C144.361 47.3601 145.897 46.8695 148.299 46.8695V36.8695V26.8695C143.079 26.8695 138.008 27.967 133.45 30.5571L138.39 39.2516ZM210.546 72.9826H220.546V62.9826H210.546V72.9826ZM210.546 90.9915V100.991H220.546V90.9915H210.546ZM180.436 54.8784H190.436V44.8784H180.436V54.8784ZM173.766 54.8784H163.766V64.8784H173.766V54.8784ZM173.766 37.2507V27.2507H163.766V37.2507H173.766ZM180.436 37.2507V47.2507H190.436V37.2507H180.436ZM180.436 24.2919V14.2919H170.436V24.2919H180.436ZM201.589 24.2919H211.589V14.2919H201.589V24.2919ZM201.589 37.2507H191.589V47.2507H201.589V37.2507ZM210.355 37.2507H220.355V27.2507H210.355V37.2507ZM210.355 54.8784V64.8784H220.355V54.8784H210.355ZM201.589 54.8784V44.8784H191.589V54.8784H201.589ZM202.447 72.125L195.376 79.1961L195.562 79.382L195.757 79.5579L202.447 72.125ZM210.546 72.9826H200.546V90.9915H210.546H220.546V72.9826H210.546ZM210.546 90.9915V80.9915H202.542V90.9915V100.991H210.546V90.9915ZM202.542 90.9915V80.9915C196.704 80.9915 194.164 79.5435 193.018 78.4024C191.88 77.2692 190.436 74.7652 190.436 68.9806H180.436H170.436C170.436 77.8699 172.676 86.3713 178.907 92.5751C185.129 98.7709 193.643 100.991 202.542 100.991V90.9915ZM180.436 68.9806H190.436V54.8784H180.436H170.436V68.9806H180.436ZM180.436 54.8784V44.8784H173.766V54.8784V64.8784H180.436V54.8784ZM173.766 54.8784H183.766V37.2507H173.766H163.766V54.8784H173.766ZM173.766 37.2507V47.2507H180.436V37.2507V27.2507H173.766V37.2507ZM180.436 37.2507H190.436V24.2919H180.436H170.436V37.2507H180.436ZM180.436 24.2919V34.2919H201.589V24.2919V14.2919H180.436V24.2919ZM201.589 24.2919H191.589V37.2507H201.589H211.589V24.2919H201.589ZM201.589 37.2507V47.2507H210.355V37.2507V27.2507H201.589V37.2507ZM210.355 37.2507H200.355V54.8784H210.355H220.355V37.2507H210.355ZM210.355 54.8784V44.8784H201.589V54.8784V64.8784H210.355V54.8784ZM201.589 54.8784H191.589V69.3617H201.589H211.589V54.8784H201.589ZM201.589 69.3617H191.589C191.589 71.8151 192.097 75.9174 195.376 79.1961L202.447 72.125L209.518 65.0539C210.581 66.1173 211.108 67.2495 211.354 68.0414C211.586 68.7897 211.589 69.2911 211.589 69.3617H201.589ZM202.447 72.125L195.757 79.5579C199.089 82.5564 203.101 82.9826 205.496 82.9826V72.9826V62.9826C205.436 62.9826 205.788 62.9716 206.393 63.1417C207.022 63.3186 208.076 63.7374 209.136 64.6921L202.447 72.125ZM205.496 72.9826V82.9826H210.546V72.9826V62.9826H205.496V72.9826ZM218.602 49.4472L209.551 45.1958L209.536 45.2261L209.522 45.2566L218.602 49.4472ZM226.606 39.9186L232.005 48.3356L232.061 48.2998L232.116 48.2633L226.606 39.9186ZM246.997 38.7752L242.012 47.4443L242.094 47.4916L242.178 47.5374L246.997 38.7752ZM252.809 44.5876L244.005 49.3286L262.809 44.5876H252.809ZM252.809 37.2507V27.2507H242.809V37.2507H252.809ZM273.867 37.2507H283.867V27.2507H273.867V37.2507ZM273.867 90.9915V100.991H283.867V90.9915H273.867ZM252.809 90.9915H242.809V100.991H252.809V90.9915ZM252.809 83.6545H262.809L244.005 78.9135L252.809 83.6545ZM246.997 89.5622L251.816 98.3243L251.899 98.2786L251.982 98.2312L246.997 89.5622ZM226.606 88.4188L221.095 96.7634L221.151 96.7999L221.206 96.8357L226.606 88.4188ZM218.602 78.8902L209.498 83.0283L209.536 83.112L209.576 83.195L218.602 78.8902ZM250.618 57.4511L257.977 50.6805L257.977 50.6805L250.618 57.4511ZM239.374 57.4511L232.015 50.6805L232.015 50.6805L239.374 57.4511ZM215.743 64.1211H225.743C225.743 59.5719 226.511 56.1739 227.682 53.6377L218.602 49.4472L209.522 45.2566C206.881 50.9785 205.743 57.3631 205.743 64.1211H215.743ZM218.602 49.4472L227.653 53.6985C228.951 50.9359 230.461 49.3261 232.005 48.3356L226.606 39.9186L221.206 31.5017C216.017 34.8308 212.192 39.5733 209.551 45.1958L218.602 49.4472ZM226.606 39.9186L232.116 48.2633C233.782 47.1635 235.631 46.5837 237.945 46.5837V36.5837V26.5837C231.874 26.5837 226.163 28.2271 221.095 31.574L226.606 39.9186ZM237.945 36.5837V46.5837C240.026 46.5837 241.255 47.0091 242.012 47.4443L246.997 38.7752L251.982 30.1062C247.657 27.6193 242.851 26.5837 237.945 26.5837V36.5837ZM246.997 38.7752L242.178 47.5374C243.085 48.0365 243.613 48.6016 244.005 49.3286L252.809 44.5876L261.614 39.8466C259.337 35.6188 255.991 32.309 251.816 30.0131L246.997 38.7752ZM252.809 44.5876H262.809V37.2507H252.809H242.809V44.5876H252.809ZM252.809 37.2507V47.2507H273.867V37.2507V27.2507H252.809V37.2507ZM273.867 37.2507H263.867V90.9915H273.867H283.867V37.2507H273.867ZM273.867 90.9915V80.9915H252.809V90.9915V100.991H273.867V90.9915ZM252.809 90.9915H262.809V83.6545H252.809H242.809V90.9915H252.809ZM252.809 83.6545L244.005 78.9135C243.591 79.6812 243.01 80.3196 242.012 80.8931L246.997 89.5622L251.982 98.2312C256.066 95.8826 259.359 92.5827 261.614 88.3955L252.809 83.6545ZM246.997 89.5622L242.178 80.8C241.388 81.2346 240.097 81.6585 237.945 81.6585V91.6585V101.658C242.78 101.658 247.524 100.685 251.816 98.3243L246.997 89.5622ZM237.945 91.6585V81.6585C235.57 81.6585 233.681 81.0769 232.005 80.0018L226.606 88.4188L221.206 96.8357C226.264 100.08 231.935 101.658 237.945 101.658V91.6585ZM226.606 88.4188L232.116 80.0741C230.462 78.9815 228.922 77.2979 227.628 74.5855L218.602 78.8902L209.576 83.195C212.221 88.7407 216.016 93.4094 221.095 96.7634L226.606 88.4188ZM218.602 78.8902L227.706 74.7522C226.509 72.12 225.743 68.6644 225.743 64.1211H215.743H205.743C205.743 70.8849 206.883 77.2754 209.498 83.0283L218.602 78.8902ZM252.809 64.1211H262.809C262.809 59.5871 261.626 54.6474 257.977 50.6805L250.618 57.4511L243.258 64.2217C243.113 64.0636 242.996 63.8994 242.907 63.746C242.82 63.5946 242.778 63.4816 242.761 63.4312C242.731 63.3409 242.809 63.526 242.809 64.1211H252.809ZM250.618 57.4511L257.977 50.6805C254.499 46.8998 249.892 45.069 244.996 45.069V55.069V65.069C244.964 65.069 244.656 65.0589 244.215 64.872C243.76 64.6794 243.434 64.4127 243.258 64.2217L250.618 57.4511ZM244.996 55.069V45.069C240.1 45.069 235.493 46.8998 232.015 50.6805L239.374 57.4511L246.733 64.2217C246.558 64.4127 246.231 64.6794 245.777 64.872C245.336 65.0589 245.027 65.069 244.996 65.069V55.069ZM239.374 57.4511L232.015 50.6805C228.365 54.6474 227.183 59.5871 227.183 64.1211H237.183H247.183C247.183 63.526 247.26 63.3409 247.231 63.4312C247.214 63.4816 247.171 63.5946 247.084 63.746C246.996 63.8994 246.879 64.0636 246.733 64.2217L239.374 57.4511ZM237.183 64.1211H227.183C227.183 68.655 228.365 73.5948 232.015 77.5616L239.374 70.791L246.733 64.0205C246.879 64.1785 246.996 64.3427 247.084 64.4961C247.171 64.6475 247.214 64.7605 247.231 64.8109C247.26 64.9012 247.183 64.7161 247.183 64.1211H237.183ZM239.374 70.791L232.015 77.5616C235.493 81.3423 240.1 83.1731 244.996 83.1731V73.1731V63.1731C245.027 63.1731 245.336 63.1832 245.777 63.3701C246.231 63.5627 246.558 63.8294 246.733 64.0205L239.374 70.791ZM244.996 73.1731V83.1731C249.892 83.1731 254.499 81.3423 257.977 77.5616L250.618 70.791L243.258 64.0205C243.434 63.8294 243.76 63.5627 244.215 63.3701C244.656 63.1832 244.964 63.1731 244.996 63.1731V73.1731ZM250.618 70.791L257.977 77.5616C261.626 73.5948 262.809 68.655 262.809 64.1211H252.809H242.809C242.809 64.7161 242.731 64.9012 242.761 64.8109C242.778 64.7605 242.82 64.6475 242.907 64.4961C242.996 64.3427 243.113 64.1785 243.258 64.0205L250.618 70.791ZM304.519 47.1603H294.519V79.1134L312.735 52.8611L304.519 47.1603ZM312.428 39.7281L317.521 48.3338L317.586 48.2957L317.649 48.2566L312.428 39.7281ZM322.147 36.8695H332.147V26.8695H322.147V36.8695ZM322.147 59.4521V69.4521H332.147V59.4521H322.147ZM307.283 61.5484L301.369 53.4843L301.303 53.5324L301.239 53.5814L307.283 61.5484ZM304.519 90.9915V100.991H314.519V90.9915H304.519ZM283.366 90.9915H273.366V100.991H283.366V90.9915ZM283.366 37.2507V27.2507H273.366V37.2507H283.366ZM304.519 37.2507H314.519V27.2507H304.519V37.2507ZM304.519 47.1603L312.735 52.8611C314.115 50.8727 315.705 49.4088 317.521 48.3338L312.428 39.7281L307.335 31.1223C302.926 33.7317 299.243 37.2226 296.303 41.4595L304.519 47.1603ZM312.428 39.7281L317.649 48.2566C319.327 47.2293 320.777 46.8695 322.147 46.8695V36.8695V26.8695C316.783 26.8695 311.754 28.4155 307.206 31.1996L312.428 39.7281ZM322.147 36.8695H312.147V59.4521H322.147H332.147V36.8695H322.147ZM322.147 59.4521V49.4521H316.144V59.4521V69.4521H322.147V59.4521ZM316.144 59.4521V49.4521C311.345 49.4521 305.818 50.2217 301.369 53.4843L307.283 61.5484L313.196 69.6124C312.809 69.8963 312.7 69.8327 313.229 69.7076C313.757 69.5828 314.688 69.4521 316.144 69.4521V59.4521ZM307.283 61.5484L301.239 53.5814C295.793 57.7124 294.519 64.0194 294.519 68.9806H304.519H314.519C314.519 68.5159 314.55 68.2052 314.578 68.0239C314.605 67.8428 314.624 67.83 314.583 67.9394C314.54 68.0547 314.434 68.2991 314.215 68.605C313.992 68.9186 313.694 69.2367 313.326 69.5153L307.283 61.5484ZM304.519 68.9806H294.519V90.9915H304.519H314.519V68.9806H304.519ZM304.519 90.9915V80.9915H283.366V90.9915V100.991H304.519V90.9915ZM283.366 90.9915H293.366V37.2507H283.366H273.366V90.9915H283.366ZM283.366 37.2507V47.2507H304.519V37.2507V27.2507H283.366V37.2507ZM304.519 37.2507H294.519V47.1603H304.519H314.519V37.2507H304.519ZM368.627 90.9915L360.323 96.5634L363.294 100.991H368.627V90.9915ZM348.998 61.7389L357.302 56.167L338.998 28.889V61.7389H348.998ZM348.998 90.9915V100.991H358.998V90.9915H348.998ZM327.845 90.9915H317.845V100.991H327.845V90.9915ZM327.845 23.5296V13.5296H317.845V23.5296H327.845ZM348.998 23.5296H358.998V13.5296H348.998V23.5296ZM348.998 51.9246H338.998V84.3666L357.263 57.5545L348.998 51.9246ZM368.341 23.5296V13.5296H363.053L360.076 17.8997L368.341 23.5296ZM392.258 23.5296L400.374 29.3714L411.776 13.5296H392.258V23.5296ZM369.008 55.8313L360.892 49.9895L356.731 55.7695L360.833 61.5911L369.008 55.8313ZM393.782 90.9915V100.991H413.061L401.957 85.2316L393.782 90.9915ZM368.627 90.9915L376.931 85.4195L357.302 56.167L348.998 61.7389L340.694 67.3109L360.323 96.5634L368.627 90.9915ZM348.998 61.7389H338.998V90.9915H348.998H358.998V61.7389H348.998ZM348.998 90.9915V80.9915H327.845V90.9915V100.991H348.998V90.9915ZM327.845 90.9915H337.845V23.5296H327.845H317.845V90.9915H327.845ZM327.845 23.5296V33.5296H348.998V23.5296V13.5296H327.845V23.5296ZM348.998 23.5296H338.998V51.9246H348.998H358.998V23.5296H348.998ZM348.998 51.9246L357.263 57.5545L376.606 29.1595L368.341 23.5296L360.076 17.8997L340.733 46.2946L348.998 51.9246ZM368.341 23.5296V33.5296H392.258V23.5296V13.5296H368.341V23.5296ZM392.258 23.5296L384.141 17.6878L360.892 49.9895L369.008 55.8313L377.124 61.673L400.374 29.3714L392.258 23.5296ZM369.008 55.8313L360.833 61.5911L385.607 96.7513L393.782 90.9915L401.957 85.2316L377.183 50.0714L369.008 55.8313ZM393.782 90.9915V80.9915H368.627V90.9915V100.991H393.782V90.9915ZM401.584 30.009L408.215 22.5231L408.215 22.5231L401.584 30.009ZM401.584 15.0492L408.215 22.5351L408.274 22.4828L408.332 22.4295L401.584 15.0492ZM419.212 15.0492L412.464 22.4295L412.523 22.4828L412.582 22.5351L419.212 15.0492ZM419.212 30.009L412.582 22.5231L412.582 22.5231L419.212 30.009ZM420.927 37.2507H430.927V27.2507H420.927V37.2507ZM420.927 90.9915V100.991H430.927V90.9915H420.927ZM399.774 90.9915H389.774V100.991H399.774V90.9915ZM399.774 37.2507V27.2507H389.774V37.2507H399.774ZM410.446 32.9628V22.9628C409.487 22.9628 408.919 22.8342 408.629 22.7375C408.369 22.6506 408.268 22.5708 408.215 22.5231L401.584 30.009L394.954 37.4949C399.417 41.4478 404.929 42.9628 410.446 42.9628V32.9628ZM401.584 30.009L408.215 22.5231C408.172 22.485 408.146 22.4583 408.133 22.4443C408.12 22.4305 408.118 22.4278 408.125 22.4368C408.132 22.4459 408.145 22.4638 408.16 22.49C408.176 22.5163 408.192 22.5467 408.207 22.5801C408.222 22.6135 408.233 22.6449 408.242 22.6724C408.251 22.6997 408.255 22.7186 408.257 22.7267C408.259 22.7345 408.257 22.728 408.254 22.7049C408.252 22.6815 408.249 22.6395 408.249 22.5768H398.249H388.249C388.249 28.4077 390.575 33.6163 394.954 37.4949L401.584 30.009ZM398.249 22.5768H408.249C408.249 22.4995 408.253 22.444 408.256 22.408C408.26 22.3722 408.263 22.3545 408.264 22.3523C408.264 22.3504 408.262 22.3609 408.255 22.3815C408.249 22.4022 408.239 22.4287 408.226 22.4587C408.213 22.4887 408.198 22.5176 408.182 22.5437C408.167 22.5697 408.154 22.5887 408.146 22.6001C408.137 22.6113 408.136 22.6116 408.145 22.6016C408.155 22.5913 408.177 22.5688 408.215 22.5351L401.584 15.0492L394.954 7.56336C390.523 11.4875 388.249 16.7521 388.249 22.5768H398.249ZM401.584 15.0492L408.332 22.4295C408.396 22.3712 408.489 22.2979 408.721 22.2183C408.982 22.1284 409.517 22.0001 410.446 22.0001V12.0001V2.00011C404.849 2.00011 399.293 3.59421 394.837 7.66895L401.584 15.0492ZM410.446 12.0001V22.0001C412.101 22.0001 412.443 22.4096 412.464 22.4295L419.212 15.0492L425.96 7.66895C421.535 3.62333 416.032 2.00011 410.446 2.00011V12.0001ZM419.212 15.0492L412.582 22.5351C412.62 22.5688 412.641 22.5913 412.651 22.6016C412.66 22.6116 412.659 22.6113 412.651 22.6001C412.642 22.5887 412.629 22.5697 412.614 22.5437C412.599 22.5176 412.584 22.4887 412.57 22.4587C412.557 22.4287 412.547 22.4022 412.541 22.3815C412.534 22.3609 412.532 22.3504 412.533 22.3523C412.533 22.3545 412.537 22.3722 412.54 22.408C412.543 22.444 412.547 22.4995 412.547 22.5768H422.547H432.547C432.547 16.7521 430.273 11.4875 425.842 7.56336L419.212 15.0492ZM422.547 22.5768H412.547C412.547 22.6395 412.544 22.6815 412.542 22.7049C412.54 22.728 412.538 22.7345 412.539 22.7267C412.541 22.7186 412.545 22.6997 412.554 22.6724C412.563 22.6449 412.575 22.6135 412.59 22.5801C412.605 22.5467 412.621 22.5163 412.636 22.49C412.652 22.4638 412.664 22.4459 412.671 22.4368C412.678 22.4278 412.677 22.4305 412.664 22.4443C412.651 22.4583 412.625 22.485 412.582 22.5231L419.212 30.009L425.842 37.4949C430.221 33.6163 432.547 28.4077 432.547 22.5768H422.547ZM419.212 30.009L412.582 22.5231C412.567 22.5362 412.183 22.9628 410.446 22.9628V32.9628V42.9628C415.95 42.9628 421.411 41.4202 425.842 37.4949L419.212 30.009ZM420.927 37.2507H410.927V90.9915H420.927H430.927V37.2507H420.927ZM420.927 90.9915V80.9915H399.774V90.9915V100.991H420.927V90.9915ZM399.774 90.9915H409.774V37.2507H399.774H389.774V90.9915H399.774ZM399.774 37.2507V47.2507H420.927V37.2507V27.2507H399.774V37.2507ZM451.634 20.4805H461.634V10.4805H451.634V20.4805ZM451.634 90.9915V100.991H461.634V90.9915H451.634ZM430.481 90.9915H420.481V100.991H430.481V90.9915ZM430.481 20.4805V10.4805H420.481V20.4805H430.481ZM451.634 20.4805H441.634V90.9915H451.634H461.634V20.4805H451.634ZM451.634 90.9915V80.9915H430.481V90.9915V100.991H451.634V90.9915ZM430.481 90.9915H440.481V20.4805H430.481H420.481V90.9915H430.481ZM430.481 20.4805V30.4805H451.634V20.4805V10.4805H430.481V20.4805ZM461.188 49.4472L452.137 45.1958L452.123 45.2261L452.108 45.2566L461.188 49.4472ZM469.192 39.9186L474.592 48.3356L474.647 48.2998L474.703 48.2633L469.192 39.9186ZM489.583 38.7752L484.598 47.4443L484.681 47.4916L484.764 47.5374L489.583 38.7752ZM495.395 44.5876L486.591 49.3286L505.395 44.5876H495.395ZM495.395 37.2507V27.2507H485.395V37.2507H495.395ZM516.453 37.2507H526.453V27.2507H516.453V37.2507ZM516.453 90.9915V100.991H526.453V90.9915H516.453ZM495.395 90.9915H485.395V100.991H495.395V90.9915ZM495.395 83.6545H505.395L486.591 78.9135L495.395 83.6545ZM489.583 89.5622L494.402 98.3243L494.485 98.2786L494.568 98.2312L489.583 89.5622ZM469.192 88.4188L463.681 96.7634L463.737 96.7999L463.792 96.8357L469.192 88.4188ZM461.188 78.8902L452.084 83.0283L452.122 83.112L452.162 83.195L461.188 78.8902ZM493.204 57.4511L500.563 50.6805L500.563 50.6805L493.204 57.4511ZM481.96 57.4511L474.601 50.6805L474.601 50.6805L481.96 57.4511ZM458.33 64.1211H468.33C468.33 59.5719 469.097 56.1739 470.268 53.6377L461.188 49.4472L452.108 45.2566C449.468 50.9785 448.33 57.3631 448.33 64.1211H458.33ZM461.188 49.4472L470.239 53.6985C471.537 50.9359 473.047 49.3261 474.592 48.3356L469.192 39.9186L463.792 31.5017C458.603 34.8308 454.778 39.5733 452.137 45.1958L461.188 49.4472ZM469.192 39.9186L474.703 48.2633C476.368 47.1635 478.217 46.5837 480.531 46.5837V36.5837V26.5837C474.46 26.5837 468.75 28.2271 463.681 31.574L469.192 39.9186ZM480.531 36.5837V46.5837C482.612 46.5837 483.841 47.0091 484.598 47.4443L489.583 38.7752L494.568 30.1062C490.243 27.6193 485.437 26.5837 480.531 26.5837V36.5837ZM489.583 38.7752L484.764 47.5374C485.671 48.0365 486.199 48.6016 486.591 49.3286L495.395 44.5876L504.2 39.8466C501.924 35.6188 498.577 32.309 494.402 30.0131L489.583 38.7752ZM495.395 44.5876H505.395V37.2507H495.395H485.395V44.5876H495.395ZM495.395 37.2507V47.2507H516.453V37.2507V27.2507H495.395V37.2507ZM516.453 37.2507H506.453V90.9915H516.453H526.453V37.2507H516.453ZM516.453 90.9915V80.9915H495.395V90.9915V100.991H516.453V90.9915ZM495.395 90.9915H505.395V83.6545H495.395H485.395V90.9915H495.395ZM495.395 83.6545L486.591 78.9135C486.177 79.6812 485.596 80.3196 484.598 80.8931L489.583 89.5622L494.568 98.2312C498.652 95.8826 501.946 92.5827 504.2 88.3955L495.395 83.6545ZM489.583 89.5622L484.764 80.8C483.974 81.2346 482.683 81.6585 480.531 81.6585V91.6585V101.658C485.366 101.658 490.11 100.685 494.402 98.3243L489.583 89.5622ZM480.531 91.6585V81.6585C478.156 81.6585 476.267 81.0769 474.592 80.0018L469.192 88.4188L463.792 96.8357C468.85 100.08 474.521 101.658 480.531 101.658V91.6585ZM469.192 88.4188L474.703 80.0741C473.048 78.9815 471.508 77.2979 470.214 74.5855L461.188 78.8902L452.162 83.195C454.807 88.7407 458.602 93.4094 463.681 96.7634L469.192 88.4188ZM461.188 78.8902L470.292 74.7522C469.095 72.12 468.33 68.6644 468.33 64.1211H458.33H448.33C448.33 70.8849 449.469 77.2754 452.084 83.0283L461.188 78.8902ZM495.395 64.1211H505.395C505.395 59.5871 504.213 54.6474 500.563 50.6805L493.204 57.4511L485.845 64.2217C485.699 64.0636 485.582 63.8994 485.494 63.746C485.407 63.5946 485.364 63.4816 485.347 63.4312C485.318 63.3409 485.395 63.526 485.395 64.1211H495.395ZM493.204 57.4511L500.563 50.6805C497.085 46.8998 492.478 45.069 487.582 45.069V55.069V65.069C487.551 65.069 487.242 65.0589 486.801 64.872C486.347 64.6794 486.02 64.4127 485.845 64.2217L493.204 57.4511ZM487.582 55.069V45.069C482.686 45.069 478.079 46.8998 474.601 50.6805L481.96 57.4511L489.32 64.2217C489.144 64.4127 488.818 64.6794 488.363 64.872C487.922 65.0589 487.614 65.069 487.582 65.069V55.069ZM481.96 57.4511L474.601 50.6805C470.951 54.6474 469.769 59.5871 469.769 64.1211H479.769H489.769C489.769 63.526 489.847 63.3409 489.817 63.4312C489.8 63.4816 489.758 63.5946 489.67 63.746C489.582 63.8994 489.465 64.0636 489.32 64.2217L481.96 57.4511ZM479.769 64.1211H469.769C469.769 68.655 470.951 73.5948 474.601 77.5616L481.96 70.791L489.32 64.0205C489.465 64.1785 489.582 64.3427 489.67 64.4961C489.758 64.6475 489.8 64.7605 489.817 64.8109C489.847 64.9012 489.769 64.7161 489.769 64.1211H479.769ZM481.96 70.791L474.601 77.5616C478.079 81.3423 482.686 83.1731 487.582 83.1731V73.1731V63.1731C487.614 63.1731 487.922 63.1832 488.363 63.3701C488.818 63.5627 489.144 63.8294 489.32 64.0205L481.96 70.791ZM487.582 73.1731V83.1731C492.478 83.1731 497.085 81.3423 500.563 77.5616L493.204 70.791L485.845 64.0205C486.02 63.8294 486.347 63.5627 486.801 63.3701C487.242 63.1832 487.551 63.1731 487.582 63.1731V73.1731ZM493.204 70.791L500.563 77.5616C504.213 73.5948 505.395 68.655 505.395 64.1211H495.395H485.395C485.395 64.7161 485.318 64.9012 485.347 64.8109C485.364 64.7605 485.407 64.6475 485.494 64.4961C485.582 64.3427 485.699 64.1785 485.845 64.0205L493.204 70.791ZM559.397 72.9826H569.397V62.9826H559.397V72.9826ZM559.397 90.9915V100.991H569.397V90.9915H559.397ZM529.287 54.8784H539.287V44.8784H529.287V54.8784ZM522.617 54.8784H512.617V64.8784H522.617V54.8784ZM522.617 37.2507V27.2507H512.617V37.2507H522.617ZM529.287 37.2507V47.2507H539.287V37.2507H529.287ZM529.287 24.2919V14.2919H519.287V24.2919H529.287ZM550.44 24.2919H560.44V14.2919H550.44V24.2919ZM550.44 37.2507H540.44V47.2507H550.44V37.2507ZM559.207 37.2507H569.207V27.2507H559.207V37.2507ZM559.207 54.8784V64.8784H569.207V54.8784H559.207ZM550.44 54.8784V44.8784H540.44V54.8784H550.44ZM551.298 72.125L544.227 79.1961L544.413 79.382L544.608 79.5579L551.298 72.125ZM559.397 72.9826H549.397V90.9915H559.397H569.397V72.9826H559.397ZM559.397 90.9915V80.9915H551.393V90.9915V100.991H559.397V90.9915ZM551.393 90.9915V80.9915C545.555 80.9915 543.015 79.5435 541.869 78.4024C540.731 77.2692 539.287 74.7652 539.287 68.9806H529.287H519.287C519.287 77.8699 521.527 86.3713 527.758 92.5751C533.98 98.7709 542.494 100.991 551.393 100.991V90.9915ZM529.287 68.9806H539.287V54.8784H529.287H519.287V68.9806H529.287ZM529.287 54.8784V44.8784H522.617V54.8784V64.8784H529.287V54.8784ZM522.617 54.8784H532.617V37.2507H522.617H512.617V54.8784H522.617ZM522.617 37.2507V47.2507H529.287V37.2507V27.2507H522.617V37.2507ZM529.287 37.2507H539.287V24.2919H529.287H519.287V37.2507H529.287ZM529.287 24.2919V34.2919H550.44V24.2919V14.2919H529.287V24.2919ZM550.44 24.2919H540.44V37.2507H550.44H560.44V24.2919H550.44ZM550.44 37.2507V47.2507H559.207V37.2507V27.2507H550.44V37.2507ZM559.207 37.2507H549.207V54.8784H559.207H569.207V37.2507H559.207ZM559.207 54.8784V44.8784H550.44V54.8784V64.8784H559.207V54.8784ZM550.44 54.8784H540.44V69.3617H550.44H560.44V54.8784H550.44ZM550.44 69.3617H540.44C540.44 71.8151 540.948 75.9174 544.227 79.1961L551.298 72.125L558.369 65.0539C559.432 66.1173 559.96 67.2495 560.205 68.0414C560.438 68.7897 560.44 69.2911 560.44 69.3617H550.44ZM551.298 72.125L544.608 79.5579C547.94 82.5564 551.953 82.9826 554.347 82.9826V72.9826V62.9826C554.287 62.9826 554.64 62.9716 555.244 63.1417C555.873 63.3186 556.927 63.7374 557.988 64.6921L551.298 72.125ZM554.347 72.9826V82.9826H559.397V72.9826V62.9826H554.347V72.9826Z" fill="#262626" mask="url(#path-3-outside-2_556_14)"/>
<defs>
<linearGradient id="paint0_linear_556_14" x1="288" y1="17.9915" x2="288" y2="112.991" gradientUnits="userSpaceOnUse">
<stop offset="0.485577" stop-color="white"/>
<stop offset="0.485677" stop-color="#D5D5D5"/>
</linearGradient>
</defs>
</svg>
